<?xml version="1.0" encoding="utf-8"?>
<!-- Generator: Adobe Illustrator 21.0.0, SVG Export Plug-In . SVG Version: 6.00 Build 0)  -->
<svg version="1.1" id="Layer_1" xmlns="http://www.w3.org/2000/svg" xmlns:xlink="http://www.w3.org/1999/xlink" x="0px" y="0px"
	 viewBox="0 0 120 62" style="enable-background:new 0 0 120 62;" xml:space="preserve">
<style type="text/css">
	.st0{fill:url(#XMLID_2_);}
	.st1{fill:url(#XMLID_3_);}
	.st2{fill:url(#XMLID_4_);}
	.st3{fill:url(#XMLID_5_);}
</style>
<g id="XMLID_27_">
	<linearGradient id="XMLID_2_" gradientUnits="userSpaceOnUse" x1="30.5171" y1="-6.2317" x2="30.5171" y2="68.9436">
		<stop  offset="0" style="stop-color:#D7CAA8"/>
		<stop  offset="0.2267" style="stop-color:#D3C6A5"/>
		<stop  offset="0.4691" style="stop-color:#C6BA9B"/>
		<stop  offset="0.7188" style="stop-color:#B0A68A"/>
		<stop  offset="0.9721" style="stop-color:#938A73"/>
		<stop  offset="1" style="stop-color:#8F8770"/>
	</linearGradient>
	<path id="XMLID_34_" class="st0" d="M39.3,56.7c-4.6,3.2-10.3,4.8-17,4.8C8.9,61.6,0,54.2,0,43.1C0,36,4.1,30.8,9.9,27.7
		c-2.4-3.4-3.5-6.6-3.5-10.2c0-9.4,7.7-17,19.6-17c11.6,0,18.7,7.2,19.6,18.4H32.5c-0.3-4.1-2.7-6.5-6-6.5c-3.2,0-5.6,2.2-5.6,5.5
		c0,3.5,2.8,6.2,8.4,11.5l9.6,9.4l6.2-10.1h14.3L48.3,47l-0.3,0.5L61,60.3H43L39.3,56.7z M30,48l-9.2-8.7l-3.3-3.1
		c-2.5,1.5-4.1,3.7-4.1,6.4c0,4,4,7.2,9.3,7.2C25,49.9,27.5,49.3,30,48z"/>
	<linearGradient id="XMLID_3_" gradientUnits="userSpaceOnUse" x1="71.7086" y1="-6.2317" x2="71.7086" y2="68.9436">
		<stop  offset="0.3952" style="stop-color:#D7CAA8"/>
		<stop  offset="1" style="stop-color:#8F8770"/>
	</linearGradient>
	<path id="XMLID_32_" class="st1" d="M63.9,45c0-4.2,3.5-7.5,7.8-7.5c4.3,0,7.8,3.3,7.8,7.5c0,4.3-3.5,7.6-7.8,7.6
		C67.4,52.6,63.9,49.3,63.9,45z"/>
	<linearGradient id="XMLID_4_" gradientUnits="userSpaceOnUse" x1="91.9376" y1="-6.2317" x2="91.9376" y2="68.9436">
		<stop  offset="0.3952" style="stop-color:#D7CAA8"/>
		<stop  offset="1" style="stop-color:#8F8770"/>
	</linearGradient>
	<path id="XMLID_30_" class="st2" d="M84.1,45c0-4.2,3.5-7.5,7.8-7.5c4.3,0,7.8,3.3,7.8,7.5c0,4.3-3.5,7.6-7.8,7.6
		C87.6,52.6,84.1,49.3,84.1,45z"/>
	<linearGradient id="XMLID_5_" gradientUnits="userSpaceOnUse" x1="112.1665" y1="-6.2317" x2="112.1665" y2="68.9436">
		<stop  offset="0.3952" style="stop-color:#D7CAA8"/>
		<stop  offset="1" style="stop-color:#8F8770"/>
	</linearGradient>
	<path id="XMLID_28_" class="st3" d="M104.3,45c0-4.2,3.5-7.5,7.8-7.5c4.3,0,7.8,3.3,7.8,7.5c0,4.3-3.5,7.6-7.8,7.6
		C107.9,52.6,104.3,49.3,104.3,45z"/>
</g>
</svg>
