<svg id="Layer_1" xmlns="http://www.w3.org/2000/svg" viewBox="0 0 120 62"><style>.st0{fill:url(#XMLID_2_)}.st1{fill:url(#XMLID_3_)}.st2{fill:url(#XMLID_4_)}.st3{fill:url(#XMLID_5_)}</style><g id="XMLID_27_"><linearGradient id="XMLID_2_" gradientUnits="userSpaceOnUse" x1="30.517" y1="-6.232" x2="30.517" y2="68.944"><stop offset="0" stop-color="#d7caa8"/><stop offset=".227" stop-color="#d3c6a5"/><stop offset=".469" stop-color="#c6ba9b"/><stop offset=".719" stop-color="#b0a68a"/><stop offset=".972" stop-color="#938a73"/><stop offset="1" stop-color="#8f8770"/></linearGradient><path id="XMLID_34_" class="st0" d="M39.3 56.7c-4.6 3.2-10.3 4.8-17 4.8C8.9 61.6 0 54.2 0 43.1 0 36 4.1 30.8 9.9 27.7c-2.4-3.4-3.5-6.6-3.5-10.2 0-9.4 7.7-17 19.6-17 11.6 0 18.7 7.2 19.6 18.4H32.5c-.3-4.1-2.7-6.5-6-6.5-3.2 0-5.6 2.2-5.6 5.5 0 3.5 2.8 6.2 8.4 11.5l9.6 9.4 6.2-10.1h14.3L48.3 47l-.3.5 13 12.8H43l-3.7-3.6zM30 48l-9.2-8.7-3.3-3.1c-2.5 1.5-4.1 3.7-4.1 6.4 0 4 4 7.2 9.3 7.2 2.3.1 4.8-.5 7.3-1.8z"/><linearGradient id="XMLID_3_" gradientUnits="userSpaceOnUse" x1="71.709" y1="-6.232" x2="71.709" y2="68.944"><stop offset=".395" stop-color="#d7caa8"/><stop offset="1" stop-color="#8f8770"/></linearGradient><path id="XMLID_32_" class="st1" d="M63.9 45c0-4.2 3.5-7.5 7.8-7.5s7.8 3.3 7.8 7.5c0 4.3-3.5 7.6-7.8 7.6s-7.8-3.3-7.8-7.6z"/><linearGradient id="XMLID_4_" gradientUnits="userSpaceOnUse" x1="91.938" y1="-6.232" x2="91.938" y2="68.944"><stop offset=".395" stop-color="#d7caa8"/><stop offset="1" stop-color="#8f8770"/></linearGradient><path id="XMLID_30_" class="st2" d="M84.1 45c0-4.2 3.5-7.5 7.8-7.5s7.8 3.3 7.8 7.5c0 4.3-3.5 7.6-7.8 7.6s-7.8-3.3-7.8-7.6z"/><linearGradient id="XMLID_5_" gradientUnits="userSpaceOnUse" x1="112.166" y1="-6.232" x2="112.166" y2="68.944"><stop offset=".395" stop-color="#d7caa8"/><stop offset="1" stop-color="#8f8770"/></linearGradient><path id="XMLID_28_" class="st3" d="M104.3 45c0-4.2 3.5-7.5 7.8-7.5s7.8 3.3 7.8 7.5c0 4.3-3.5 7.6-7.8 7.6-4.2 0-7.8-3.3-7.8-7.6z"/></g></svg>