<?xml version="1.0" encoding="utf-8"?>
<!-- Generator: Adobe Illustrator 21.0.2, SVG Export Plug-In . SVG Version: 6.00 Build 0)  -->
<svg version="1.1" id="Layer_1" xmlns="http://www.w3.org/2000/svg" xmlns:xlink="http://www.w3.org/1999/xlink" x="0px" y="0px"
	 viewBox="0 0 943 944.3" style="enable-background:new 0 0 943 944.3;" xml:space="preserve">
<style type="text/css">
	.st0{fill:url(#XMLID_2_);}
</style>
<linearGradient id="XMLID_2_" gradientUnits="userSpaceOnUse" x1="95.2717" y1="212.383" x2="969.2717" y2="1088.3831">
	<stop  offset="0" style="stop-color:#71CEBB"/>
	<stop  offset="1" style="stop-color:#5AA697"/>
</linearGradient>
<path id="XMLID_34_" class="st0" d="M606.5,869.8c-71.8,49.2-159.6,74.5-262,74.5C137,944.3,0,829.9,0,659.7
	c0-110.4,63.9-190.2,153-238.1c-37.2-53.2-54.5-102.4-54.5-158.3C98.4,118.4,216.8,0,401.7,0c179.6,0,288.6,111.7,303.2,284.6H501.4
	c-5.3-63.8-41.2-101.1-93.1-101.1c-49.2,0-86.4,33.2-86.4,85.1c0,54.5,43.9,95.8,130.3,178.2l148.9,145l95.8-155.6h220.8
	L746.1,719.5l-5.3,8L943,924.3H665L606.5,869.8z M462.8,735.5L320.5,601.2L270,553.3c-38.6,22.6-63.9,57.2-63.9,98.4
	c0,61.2,62.5,111.7,143.6,111.7C385.7,763.4,425.6,754.1,462.8,735.5z"/>
</svg>
