<?xml version="1.0" encoding="utf-8"?>
<!-- Generator: Adobe Illustrator 19.0.0, SVG Export Plug-In . SVG Version: 6.00 Build 0)  -->
<svg version="1.1" id="Layer_1" xmlns="http://www.w3.org/2000/svg" xmlns:xlink="http://www.w3.org/1999/xlink" x="0px" y="0px"
	 viewBox="0 0 400 255.9" style="enable-background:new 0 0 400 255.9;" xml:space="preserve">
<style type="text/css">
	.st0{opacity:0.4;}
	.st1{fill:#BAAF91;}
	.st2{opacity:0.6;}
</style>
<g id="XMLID_293_">
	<g id="XMLID_22_" class="st0">
		<path id="XMLID_179_" class="st1" d="M195,73.6c0,0-15,4.9-23.5,2.1c-8.5-2.7-15.7-6.1-17.3-9.6c-1.6-3.5,8.8-1.4,8.8-1.4
			L195,73.6z"/>
	</g>
	<g id="XMLID_134_" class="st2">
		<path id="XMLID_178_" class="st1" d="M166.2,20.8c0,0-29.4,0.8-65.1-15.1s-34.4,7.9-34.4,7.9l17,20.9c0,0,21.3,13.9,30.9,12.3
			c9.6-1.7,16.9-6.9,21.5-6.3l14.7-7L166.2,20.8z"/>
	</g>
	<g id="XMLID_133_" class="st0">
		<path id="XMLID_177_" class="st1" d="M267.4,43.9c0,0,5,4.1,8,7.9c2.1,2.7,17.2,8.4,13.6,9.3c-3.5,0.9-9.4,0-9.4,0l-34.1-16.3
			l-16.4-8.2L215.1,30C215.1,30,261.2,40.5,267.4,43.9z"/>
	</g>
	<g id="XMLID_124_" class="st0">
		
			<ellipse id="XMLID_176_" transform="matrix(0.7677 0.6408 -0.6408 0.7677 95.3308 -126.7786)" class="st1" cx="222.5" cy="68.1" rx="4.3" ry="3.6"/>
	</g>
	<g id="XMLID_125_" class="st0">
		
			<ellipse id="XMLID_175_" transform="matrix(0.7677 0.6408 -0.6408 0.7677 87.1816 -121.0456)" class="st1" cx="210.6" cy="59.7" rx="4.3" ry="3.6"/>
	</g>
	<g id="XMLID_130_" class="st0">
		
			<ellipse id="XMLID_174_" transform="matrix(0.7677 0.6408 -0.6408 0.7677 76.6095 -115.6184)" class="st1" cx="197.8" cy="47.9" rx="4.3" ry="3.6"/>
	</g>
	<g id="XMLID_131_" class="st0">
		
			<ellipse id="XMLID_173_" transform="matrix(0.7677 0.6408 -0.6408 0.7677 64.5923 -109.1662)" class="st1" cx="182.9" cy="34.5" rx="4.3" ry="3.6"/>
	</g>
	<g id="XMLID_78_" class="st0">
		<path id="XMLID_172_" class="st1" d="M327.8,180.1c0,0,69.8-15.3,72-29.4c2.2-14.2-24.1-22.7-24.1-23.1c0-0.4-0.7-13.1-0.7-13.1
			s-31.3,19.7-56.6,19.9c-25.4,0.2-28.3,0-28.3,0s28.4,18.9,32.2,24.5S327.8,180.1,327.8,180.1z"/>
	</g>
	<g id="XMLID_108_" class="st2">
		<path id="XMLID_171_" class="st1" d="M31.3,177.1c0,0-21.1-7.4-20.9-12.1c0.2-4.7-2.4-16.1-2.4-16.1s7.9,5.6,15.3,9.2
			s20.3,7.6,27.5,10.7s21.6,6.7,23.7,7s-3.9,5.3-3.9,5.3l-12.4,6.7L31.3,177.1z"/>
	</g>
	<g id="XMLID_107_" class="st0">
		<path id="XMLID_170_" class="st1" d="M207.9,89.8c0,0,4.7,1.6-21,0.8c-14.7-0.4-44.5-16.4-50.3-22s-11.2-10.4-11.2-10.4l-6.2-4
			l9.4-4.5c0,0,3.2,4,13.8,14.7c13.9,14.1,22.8,19.1,57.2,18.5c4.1-0.1,0.8-0.4,3.2,3.3C205,89.8,207.9,89.8,207.9,89.8z"/>
	</g>
	<g id="XMLID_103_" class="st0">
		<path id="XMLID_169_" class="st1" d="M325.3,198.7l-8.3,4.4c0,0-14.3,9.8-50.1,23.8c-39.3,15.4-98.1,8.8-147.9-29.1
			c-24.5-18.7-83.6-30.4-91.9-36.3c-8.2-5.9-20.1-13.1-20.1-13.1l1.8,19.8c-7.8,5.2-8.2,12.4,4.7,17.3s45.9,16.3,65.8,16.6
			c18,0.3,84.3,56.5,129.2,53.6c33.3-2.1,76.5-7.3,108.4-24.5c16.6-8.9,25-24.8,23.3-29.2c-4.8-12.3-11.6-10.3-12-9.8
			C327.9,192.9,325.3,198.7,325.3,198.7z"/>
	</g>
	<g id="XMLID_49_" class="st0">
		
			<ellipse id="XMLID_168_" transform="matrix(0.7677 0.6408 -0.6408 0.7677 95.2561 -66.8187)" class="st1" cx="139.8" cy="98" rx="4.7" ry="4.1"/>
	</g>
	<g id="XMLID_58_" class="st0">
		
			<ellipse id="XMLID_167_" transform="matrix(0.7677 0.6408 -0.6408 0.7677 87.0274 -60.3837)" class="st1" cx="126.8" cy="89.8" rx="4.7" ry="4.1"/>
	</g>
	<g id="XMLID_102_" class="st0">
		
			<ellipse id="XMLID_166_" transform="matrix(0.7677 0.6408 -0.6408 0.7677 76.9466 -55.1633)" class="st1" cx="114.6" cy="78.6" rx="4.7" ry="4.1"/>
	</g>
	<g id="XMLID_109_" class="st0">
		
			<ellipse id="XMLID_165_" transform="matrix(0.7677 0.6408 -0.6408 0.7677 102.4688 -73.1985)" class="st1" cx="152.2" cy="104.7" rx="4.7" ry="4.1"/>
	</g>
	<g id="XMLID_36_" class="st0">
		<path id="XMLID_161_" class="st1" d="M5.5,81.8c0,0,13.7,43.2,25.2,47.9c11.5,4.7,56.4,20.8,56.4,20.8s18.9,4.5,27.2,13.5
			c8.3,9.1,39.3,29.2,56,35.9s28,8.2,28,8.2s2.3-0.3,24,5.1c9.7,2.4,19,7.9,26.6,8.1c6.4,0.1,55.5-16.5,55.5-16.5l19-5.6l-3.5,5.3
			c0,0-56.4,25.8-80,28.5c-34.1,4-53.7,5.8-78.7-7.3c0,0-47.9-31.9-59.4-38.7c-11.5-6.7-40.7-16.8-54.7-20.4
			c-14-3.6-40.1-18.3-40.1-18.3S1.8,84.1,5.5,81.8z"/>
	</g>
	<g id="XMLID_106_">
		<g id="XMLID_6_">
			<path id="XMLID_262_" class="st1" d="M205,224.2c-0.5,0-1,0-1.5,0c-18.9-0.2-34.1-5.9-43.5-10.6c-9.4-4.7-15.1-9.3-16.1-10.2
				c-2.2-1.4-25.4-16.5-38.4-25.5c-10.3-7.1-26.7-13.6-47.5-18.6c-14.2-3.5-47.6-19.4-49-20c-0.5-0.2-0.9-0.6-1.2-1.1
				c-2.5-4-7.7-27.8-7.7-45.8c0-19,5.7-32.9,5.9-33.5c0.4-1,1.3-1.7,2.4-1.8c1.1-0.1,2.1,0.4,2.7,1.2c0,0,3.4,4.9,6.7,9
				c0.9,1,21.2,25.6,39,23.7c17.3-1.8,27.5-9.7,37.3-18.4c2.2-2,4.7-4.2,7.3-6.6c9.1-8.3,19.4-17.7,25.4-20.5
				c3.2-1.5,6.9-1.2,11.1,0.8c1.4,0.7,2,2.4,1.3,3.9c-0.7,1.4-2.4,2-3.9,1.3c-2.6-1.3-4.6-1.5-6.1-0.8c-5.2,2.5-15.6,12-24,19.6
				c-2.6,2.4-5.1,4.7-7.4,6.7c-10.5,9.3-21.5,17.8-40.5,19.8c-20.6,2.1-41.8-23-44.1-25.8c-1.3-1.6-2.6-3.2-3.7-4.7
				C8,71.7,5.8,81.1,5.8,92.4c0,10.7,1.8,21.7,2.8,27.4c1.5,7.7,2.9,12.8,3.7,14.7c5.5,2.6,34.6,16.2,47,19.2
				c21.8,5.3,38.4,11.9,49.4,19.5c13.5,9.4,38.2,25.3,38.4,25.5c0.1,0.1,0.2,0.2,0.3,0.3c0.1,0,5.6,4.9,15.2,9.6
				c8.9,4.4,23.2,9.7,40.8,9.9c36.4,0.4,76.9-13.8,85.8-17.7c1.5-0.7,3.2-1.3,4.9-2.1c11-4.5,26.1-10.7,29.3-21.3
				c3.6-11.8-4-19-12.7-25.9c-5-3.9-33.1-18.4-53.7-29c-17-8.8-27.6-14.2-30.1-15.9c-1.4-0.9-3.6-2.3-6.1-3.9
				c-14.5-9.1-21.6-14.1-22.9-18.2c-0.1-0.3-0.2-0.6-0.3-0.9c-0.9-2.9-1.8-5.8-3.9-7.8c-1.2-1.1-1.3-2.9-0.2-4.1
				c1.1-1.2,2.9-1.3,4.1-0.2c3.3,3,4.5,7.1,5.5,10.4c0.1,0.3,0.2,0.6,0.3,0.9c0.1,0.2,0.8,1.8,7.2,6.4c4.1,2.9,9.2,6.1,13.2,8.7
				c2.6,1.6,4.8,3,6.3,4c2.3,1.6,15.5,8.4,29.5,15.6c23,11.8,49.1,25.3,54.6,29.6c4.6,3.6,9.3,7.7,12.4,12.7
				c3.6,6,4.4,12.5,2.3,19.4c-4,13.3-20.6,20-32.7,25c-1.7,0.7-3.3,1.4-4.8,2c-6.7,2.9-20.1,7.5-34.9,11.1
				C243.5,220.4,224,224.2,205,224.2z"/>
		</g>
	</g>
	<g id="XMLID_71_">
		<g id="XMLID_5_">
			<path id="XMLID_261_" class="st1" d="M195.8,76.5c-0.7,0-1.4-0.3-2-0.8c-1.3-1.2-3-1.9-5.3-2.2c-7.8-1-31.8-5.2-38.8-10.9
				c-1-0.8-2-1.7-3.2-2.7c-3.3-2.9-7.5-6.5-11.3-8.3c-1.4-0.7-2-2.4-1.3-3.9c0.7-1.4,2.4-2,3.9-1.3c4.5,2.2,9,6.1,12.6,9.2
				c1.1,0.9,2.1,1.8,3,2.6c5.2,4.2,25.9,8.4,35.9,9.7c3.4,0.4,6.2,1.7,8.4,3.7c1.2,1.1,1.3,2.9,0.2,4.1
				C197.4,76.2,196.6,76.5,195.8,76.5z"/>
		</g>
	</g>
	<g id="XMLID_14_">
		<g id="XMLID_4_">
			<path id="XMLID_260_" class="st1" d="M208.5,238.8c-28.9,0-45.1-7.9-59.1-16.1c-6.2-3.6-13.7-9.2-21.7-15
				c-11.9-8.7-25.3-18.6-34.3-21.7c-4.7-1.6-8.6-3.1-12.4-4.5c-8.3-3.1-15.4-5.8-25.9-8.4c-12.7-3.2-36.1-10.6-50.4-24.5
				c-1.1-1.1-1.2-3-0.1-4.1c1.1-1.1,3-1.2,4.1-0.1c13.3,13,35.7,20,47.8,23.1c10.8,2.7,18.1,5.4,26.5,8.6c3.8,1.4,7.6,2.9,12.2,4.5
				c9.8,3.4,23,13.1,35.8,22.5c7.8,5.8,15.3,11.2,21.2,14.7c15.3,8.9,33.2,17.5,68.9,14.9c34.6-2.5,60.4-11.2,80.6-20.9
				c0.9-0.4,1.7-0.8,2.6-1.2c15.3-7.4,19.8-15.6,21.2-17.1c-0.5-13.8-1.1-16.5-1.1-16.6c0,0.1,0,0.1,0,0.1l5.6-6.1
				c0.2,0.6,0.7,8.4,1.3,23.5c0,0.5-0.1,1.1-0.4,1.5c-0.6,1-3.8,10.1-24.2,19.9c-0.8,0.4-1.7,0.8-2.6,1.2
				c-20.6,10-47.1,18.9-82.7,21.5C217,238.6,212.6,238.8,208.5,238.8z"/>
		</g>
	</g>
	<g id="XMLID_16_">
		<g id="XMLID_3_">
			<path id="XMLID_259_" class="st1" d="M58.9,190c-0.3,0-0.6,0-0.9-0.1c-0.1,0-11.1-3.7-22.4-7.9c-6.6-2.5-12.1-4.7-16.2-6.6
				c-7.3-3.3-9.1-5-9.9-6.3c-4.4-6.9-7.1-31.3-8.2-51.8C0.6,103.5,0.1,91.2,1,80.1c1-13.1,3.9-22.5,8.9-29.7
				c3.4-4.9,8.7-7.7,15.8-8.2c5.2-0.4,10.3,0.5,13.6,1.3c2.5,0.6,8.9,2.9,17.1,5.7c9.9,3.5,22.1,7.8,27.8,9.2
				c10,2.6,21.6,5,21.7,5.1c1.6,0.3,2.6,1.9,2.2,3.4c-0.3,1.6-1.9,2.6-3.4,2.2c-0.1,0-11.7-2.5-21.9-5.1c-5.9-1.5-17.8-5.7-28.3-9.3
				c-7.4-2.6-14.4-5-16.6-5.6c-5.2-1.3-17.8-3.4-23.3,4.6c-4.3,6.2-6.9,15-7.8,26.8C5.9,91.3,6.4,103.4,7.1,117
				c1.4,28,4.7,45,7.2,48.9c0.4,0.5,3.5,3.1,23.8,10.8c8.8,3.3,17.3,6.2,20.4,7.3l16.8-9.7c1.4-0.8,3.2-0.3,4,1.1
				c0.8,1.4,0.3,3.2-1.1,4l-18,10.4C59.9,189.9,59.4,190,58.9,190z"/>
		</g>
	</g>
	<g id="XMLID_17_">
		<g id="XMLID_126_">
			<path id="XMLID_258_" class="st1" d="M134.5,194.7c-0.3,0-0.5-0.1-0.7-0.4c-0.2-0.4-0.1-0.8,0.2-1.1c0.2-0.1,21.6-14.2,32.8-18.7
				c11.9-4.8,28-7.5,40.7-9.3c1.7-0.2,3.5-0.4,5.4-0.6c13.1-1.3,27.9-2.8,34.2-28.2c0.1-0.4,0.4-0.6,0.8-0.6c0.1,0,5.7,0.2,13.5-3.6
				c7.3-3.6,6.7-6.8,6.7-6.8c-0.1-0.4,0.1-0.8,0.6-0.9c0.4-0.1,0.8,0.2,1,0.6c0,0.2,1,4.4-7.5,8.6c-6.7,3.3-11.8,3.7-13.6,3.7
				c-2.9,11.4-7.9,19.1-15.1,23.5c-6.4,3.9-13.8,4.6-20.2,5.3c-1.9,0.2-3.6,0.4-5.3,0.6c-12.6,1.8-28.6,4.5-40.3,9.2
				c-11.1,4.5-32.3,18.5-32.5,18.6C134.8,194.6,134.7,194.7,134.5,194.7z"/>
		</g>
	</g>
	<g id="XMLID_20_">
		<g id="XMLID_114_">
			<path id="XMLID_257_" class="st1" d="M58.8,157.3c-0.2,0-0.3-0.1-0.5-0.2c-0.3-0.3-0.4-0.8-0.1-1.1c2.7-3.3,9.7-12.5,11.8-15.3
				c-28.7-10.1-45.3-21.4-54.3-29.2C5.8,103,2.9,96.9,2.7,96.6c-0.2-0.4,0-0.9,0.4-1c0.4-0.2,0.9,0,1,0.4c0,0.1,3,6.1,12.7,14.5
				c9,7.7,25.8,19.1,54.7,29.1c0.2,0.1,0.4,0.3,0.5,0.5s0,0.5-0.1,0.7c-0.1,0.1-9.3,12.2-12.5,16.2C59.2,157.2,59,157.3,58.8,157.3z
				"/>
		</g>
	</g>
	<g id="XMLID_21_">
		<g id="XMLID_113_">
			<path id="XMLID_256_" class="st1" d="M81.7,131.2c-0.3,0-0.6-0.2-0.7-0.5l-2.1-4.7l-4.6,2.5c-0.2,0.1-0.4,0.1-0.6,0
				c-0.2-0.1-0.4-0.2-0.5-0.4l-1.9-4.8l-4.7,2.3c-0.2,0.1-0.4,0.1-0.6,0c-0.2-0.1-0.4-0.3-0.4-0.5l-1.7-4.9l-4.7,2.1
				c-0.2,0.1-0.4,0.1-0.6,0c-0.2-0.1-0.4-0.3-0.4-0.5l-1.5-5l-4.8,1.9c-0.2,0.1-0.4,0.1-0.6,0c-0.2-0.1-0.3-0.3-0.4-0.5l-1.3-5
				l-4.9,1.7c-0.2,0.1-0.4,0-0.6-0.1c-0.2-0.1-0.3-0.3-0.4-0.5l-1.1-5.1l-5,1.5c-0.2,0.1-0.4,0-0.6-0.1c-0.2-0.1-0.3-0.3-0.4-0.5
				l-0.9-5.1l-5,1.3c-0.2,0.1-0.4,0-0.6-0.1c-0.2-0.1-0.3-0.3-0.3-0.5l-0.7-5.1l-5.1,1c-0.2,0-0.4,0-0.6-0.1
				c-0.2-0.1-0.3-0.3-0.3-0.6l-0.4-5.2l-5.1,0.8c-0.2,0-0.4,0-0.6-0.2c-0.2-0.1-0.3-0.3-0.3-0.6l-0.2-5.2l-5.1,0.6
				c-0.2,0-0.4,0-0.6-0.2c-0.2-0.1-0.3-0.4-0.3-0.6l0-5.2l-5.2,0.3c-0.2,0-0.4-0.1-0.6-0.2c-0.2-0.2-0.2-0.4-0.2-0.6l0.5-6
				c0-0.4,0.4-0.7,0.8-0.7c0.4,0,0.7,0.4,0.7,0.8L6,83.8l5.1-0.3c0.2,0,0.4,0.1,0.6,0.2c0.2,0.1,0.2,0.4,0.2,0.6l0,5.1l5.1-0.6
				c0.2,0,0.4,0,0.6,0.2s0.3,0.3,0.3,0.6l0.2,5.1l5.1-0.8c0.2,0,0.4,0,0.6,0.2c0.2,0.1,0.3,0.3,0.3,0.5l0.4,5.1l5-1
				c0.2,0,0.4,0,0.6,0.1s0.3,0.3,0.3,0.5l0.6,5.1l5-1.2c0.2-0.1,0.4,0,0.6,0.1c0.2,0.1,0.3,0.3,0.3,0.5l0.9,5.1l4.9-1.4
				c0.2-0.1,0.4,0,0.6,0.1c0.2,0.1,0.3,0.3,0.4,0.5l1.1,5l4.9-1.7c0.2-0.1,0.4-0.1,0.6,0.1c0.2,0.1,0.3,0.3,0.4,0.5l1.3,5l4.8-1.9
				c0.2-0.1,0.4-0.1,0.6,0c0.2,0.1,0.3,0.3,0.4,0.5l1.5,4.9l4.7-2.1c0.2-0.1,0.4-0.1,0.6,0c0.2,0.1,0.4,0.3,0.4,0.5l1.7,4.9l4.6-2.3
				c0.2-0.1,0.4-0.1,0.6,0c0.2,0.1,0.4,0.2,0.4,0.4l1.9,4.8l4.5-2.4c0.2-0.1,0.4-0.1,0.6-0.1c0.2,0.1,0.4,0.2,0.5,0.4l2.5,5.5
				c0.2,0.4,0,0.9-0.4,1C81.9,131.2,81.8,131.2,81.7,131.2z"/>
		</g>
	</g>
	<g id="XMLID_23_">
		<g id="XMLID_101_">
			<path id="XMLID_255_" class="st1" d="M74,159.8c-0.3,0-0.6-0.2-0.7-0.5c-0.2-0.4,0-0.9,0.4-1l4.4-1.9l-0.8-4.7
				c-0.1-0.4,0.2-0.8,0.6-0.9l4.6-0.8l0.1-4.7c0-0.4,0.4-0.8,0.8-0.8c0,0,0,0,0,0l4.7,0l0.9-4.6c0.1-0.4,0.5-0.7,0.9-0.6l4.6,0.8
				l1.6-4.4c0.1-0.4,0.6-0.6,1-0.5l4.5,1.4l2.2-4.1c0.2-0.4,0.6-0.5,1-0.3l4.2,2l2.6-3.9c0.2-0.3,0.7-0.4,1-0.2l4,2.4l3-3.6
				c0.3-0.3,0.7-0.4,1.1-0.1l3.8,2.8l3.3-3.3c0.3-0.3,0.8-0.3,1.1,0l3.5,3l3.5-3.1c0.3-0.3,0.8-0.3,1.1,0l3.3,3.3l3.7-2.9
				c0.3-0.2,0.8-0.2,1.1,0.1l3.1,3.4l3.8-2.7c0.3-0.2,0.8-0.2,1,0.1l3,3.6l3.9-2.5c0.4-0.2,0.8-0.1,1.1,0.2c0.2,0.4,0.1,0.8-0.2,1.1
				l-4.5,2.8c-0.3,0.2-0.8,0.1-1-0.2l-2.9-3.6l-3.8,2.6c-0.3,0.2-0.8,0.2-1-0.1l-3.1-3.4l-3.6,2.8c-0.3,0.2-0.7,0.2-1-0.1l-3.3-3.2
				l-3.5,3c-0.3,0.3-0.7,0.3-1,0l-3.5-3l-3.2,3.3c-0.3,0.3-0.7,0.3-1,0.1l-3.7-2.7l-3,3.5c-0.2,0.3-0.7,0.4-1,0.2l-3.9-2.4l-2.6,3.8
				c-0.2,0.3-0.6,0.4-1,0.3l-4.2-1.9l-2.1,4.1c-0.2,0.3-0.6,0.5-0.9,0.4l-4.4-1.4l-1.6,4.3c-0.1,0.4-0.5,0.6-0.9,0.5l-4.5-0.8
				l-0.9,4.5c-0.1,0.4-0.4,0.6-0.8,0.6c0,0,0,0,0,0l-4.6,0l-0.1,4.6c0,0.4-0.3,0.7-0.6,0.7l-4.5,0.8l0.8,4.5
				c0.1,0.4-0.1,0.7-0.5,0.8l-4.9,2.2C74.3,159.8,74.1,159.8,74,159.8z"/>
		</g>
	</g>
	<g id="XMLID_24_">
		<g id="XMLID_100_">
			<path id="XMLID_254_" class="st1" d="M81.7,131.2c-0.2,0-0.5-0.1-0.6-0.3c-0.3-0.3-0.2-0.8,0.1-1.1c0.3-0.2,7.4-5.9,20.4-10.1
				c7.7-2.4,15.8-3.8,24.1-4.1c10.2-0.4,20.8,0.9,31.5,3.7c0.9-2.7,4-12.4,5-16.4c-1.2-0.5-4.2-1.9-10.1-5.6
				c-8.1-5-21.4-17.1-21.9-17.6l-18.9-16.6c-0.3-0.3-0.4-0.8-0.1-1.1c0.3-0.3,0.8-0.4,1.1-0.1l18.9,16.6C131.4,78.8,145,91.1,153,96
				c7.9,4.9,10.4,5.7,10.4,5.7c0.4,0.1,0.6,0.5,0.5,0.9c-1,4-5.3,17.4-5.4,17.9c-0.1,0.4-0.5,0.6-0.9,0.5
				c-24.4-6.7-43.6-3.6-55.4,0.1c-12.8,4-19.9,9.7-20,9.8C82,131.1,81.8,131.2,81.7,131.2z"/>
		</g>
	</g>
	<g id="XMLID_25_">
		<g id="XMLID_93_">
			<path id="XMLID_253_" class="st1" d="M160.9,132c-0.4,0-0.7-0.3-0.8-0.7c0-0.2-0.4-5.7,3.4-17.4c0.6-1.9,1.2-3.5,1.6-4.9
				c2.6-7.8,2.8-8.7-0.7-10.4c-0.4-0.2-0.5-0.7-0.3-1c0.2-0.4,0.7-0.5,1-0.3c2,1,3.4,2.2,3.5,4.3c0.1,1.8-0.7,4.1-2,8
				c-0.5,1.4-1,3-1.6,4.9c-3.7,11.4-3.3,16.7-3.3,16.8C161.8,131.6,161.4,131.9,160.9,132C161,132,161,132,160.9,132z"/>
		</g>
	</g>
	<g id="XMLID_26_">
		<g id="XMLID_80_">
			<path id="XMLID_252_" class="st1" d="M164.9,98.6c-0.1,0-0.2,0-0.3,0c-0.3-0.1-7.3-2.7-18-10.9c-10.6-8.2-25.3-20.8-25.4-21
				c-0.3-0.3-0.4-0.8-0.1-1.1c0.3-0.3,0.8-0.4,1.1-0.1c0.1,0.1,14.8,12.8,25.4,20.9c10.5,8.1,17.5,10.6,17.5,10.7
				c0.4,0.1,0.6,0.6,0.5,1C165.5,98.4,165.2,98.6,164.9,98.6z"/>
		</g>
	</g>
	<g id="XMLID_31_">
		<g id="XMLID_64_">
			<path id="XMLID_251_" class="st1" d="M200.3,85.9c-0.1,0-0.2,0-0.3,0c-0.1,0-5.8-2-13.2-2.6c-1.9-0.1-3.8-0.2-5.5-0.3
				c-5.1-0.2-10-0.3-16.4-2.5c-8.5-2.8-22.4-14.6-25.2-17.4c-0.5-0.5-1.2-1-2-1.7c-2.9-2.3-7.3-5.8-7.1-10.8c0-1.2,0.1-2,0.1-2.6
				c-0.1-0.1-0.1-0.3-0.1-0.4c0.1-0.8,0.1-1.5,0.9-1.5c0.8,0,0.8,0.7,0.7,1.5c0,0.6,0,1.6-0.1,3c-0.2,4.2,3.7,7.3,6.5,9.5
				c0.8,0.7,1.6,1.2,2.1,1.8c2.4,2.4,16.4,14.3,24.6,17c6.2,2,10.9,2.2,16,2.4c1.8,0.1,3.6,0.1,5.6,0.3c7.6,0.6,13.4,2.6,13.6,2.7
				c0.4,0.1,0.6,0.6,0.5,1C200.9,85.7,200.6,85.9,200.3,85.9z"/>
		</g>
	</g>
	<g id="XMLID_32_">
		<g id="XMLID_59_">
			<path id="XMLID_250_" class="st1" d="M179.1,77.2c-6.4,0-13.7-0.1-21.7-6.8c-8.2-6.8-10.2-9.4-13.1-14.1
				c-0.2-0.4-0.1-0.8,0.3-1.1c0.4-0.2,0.8-0.1,1.1,0.3c2.8,4.5,4.7,7,12.7,13.7c7.7,6.4,14.5,6.4,21.1,6.4l0.4,0
				c6.6,0,14.5-1.6,14.6-1.7c0.4-0.1,0.8,0.2,0.9,0.6c0.1,0.4-0.2,0.8-0.6,0.9c-0.3,0.1-8.1,1.7-14.9,1.7l-0.4,0
				C179.4,77.2,179.2,77.2,179.1,77.2z"/>
		</g>
	</g>
	<g id="XMLID_27_">
		<g id="XMLID_30_">
			<path id="XMLID_249_" class="st1" d="M124.5,184.8c-0.1,0-0.1,0-0.2,0l-5.3-1.2c-0.4-0.1-0.7-0.5-0.6-0.9
				c0.1-0.4,0.5-0.7,0.9-0.6l4.6,1l1.6-4.4c0.1-0.4,0.5-0.6,0.9-0.5l4.6,1.1l1.7-4.4c0.1-0.4,0.5-0.6,0.9-0.5l4.5,1.2l1.8-4.3
				c0.2-0.4,0.6-0.6,0.9-0.5l4.5,1.3l1.9-4.3c0.2-0.4,0.6-0.6,0.9-0.4l4.5,1.4l2-4.3c0.2-0.4,0.6-0.5,1-0.4l4.5,1.5l2.1-4.2
				c0.2-0.4,0.6-0.5,1-0.4l4.4,1.6l2.2-4.2c0.2-0.4,0.6-0.5,1-0.4l4.4,1.7l2.4-4.1c0.2-0.3,0.6-0.5,1-0.3l4.3,1.9l2.6-3.9
				c0.2-0.3,0.7-0.5,1-0.3l4.2,2.2l2.9-3.7c0.2-0.3,0.7-0.4,1-0.2l4.1,2.5l3.1-3.7c0.2-0.3,0.7-0.4,1-0.2l4.2,2.5l3.1-3.7
				c0.2-0.3,0.7-0.4,1-0.2l4.2,2.4l3-3.8c0.2-0.3,0.6-0.4,0.9-0.2l4.2,2l1.3-4.3c0.1-0.3,0.3-0.5,0.5-0.5l4.5-1.3l-1.3-4.6
				c-0.1-0.3,0-0.6,0.3-0.8l3.8-2.9l-3.1-3.5c-0.2-0.2-0.2-0.5-0.1-0.8l2-5.2c0.2-0.4,0.6-0.6,1-0.5c0.4,0.2,0.6,0.6,0.5,1l-1.8,4.7
				l3.3,3.8c0.1,0.2,0.2,0.4,0.2,0.6c0,0.2-0.1,0.4-0.3,0.5l-4,3.1l1.4,4.8c0.1,0.2,0,0.4-0.1,0.6c-0.1,0.2-0.3,0.3-0.5,0.4
				l-4.9,1.4l-1.4,4.7c-0.1,0.2-0.2,0.4-0.4,0.5c-0.2,0.1-0.4,0.1-0.6,0l-4.5-2.1l-3,3.8c-0.2,0.3-0.7,0.4-1,0.2l-4.2-2.4l-3.1,3.7
				c-0.2,0.3-0.7,0.4-1,0.2l-4.2-2.5l-3.1,3.7c-0.2,0.3-0.7,0.4-1,0.2l-4.1-2.5l-2.9,3.7c-0.2,0.3-0.6,0.4-1,0.2l-4.1-2.2l-2.5,3.9
				c-0.2,0.3-0.6,0.4-1,0.3l-4.3-1.9l-2.3,4c-0.2,0.3-0.6,0.5-1,0.3l-4.3-1.7l-2.2,4.1c-0.2,0.3-0.6,0.5-1,0.4l-4.4-1.6l-2.1,4.2
				c-0.2,0.4-0.6,0.5-0.9,0.4l-4.4-1.5l-1.9,4.3c-0.2,0.4-0.6,0.5-0.9,0.4l-4.5-1.4l-1.9,4.3c-0.2,0.4-0.6,0.5-0.9,0.4l-4.5-1.3
				l-1.8,4.3c-0.1,0.4-0.5,0.6-0.9,0.5l-4.5-1.2l-1.7,4.4c-0.1,0.4-0.5,0.6-0.9,0.5l-4.5-1.1l-1.6,4.4
				C125.1,184.6,124.8,184.8,124.5,184.8z"/>
		</g>
	</g>
	<g id="XMLID_28_">
		<g id="XMLID_18_">
			<path id="XMLID_248_" class="st1" d="M235.8,128.6c-0.2,0-0.4-0.1-0.5-0.2l-4-3.4c-0.3-0.3-0.4-0.8-0.1-1.1
				c0.3-0.3,0.8-0.4,1.1-0.1l3.4,2.9l2.9-3.4c0.3-0.3,0.7-0.4,1-0.1l3.8,2.4l2.4-3.7c0.2-0.3,0.6-0.4,1-0.3l4.1,1.9l1.9-4
				c0.2-0.3,0.5-0.5,0.9-0.4l5.1,1.3c0.4,0.1,0.7,0.5,0.6,1s-0.5,0.7-1,0.6l-4.5-1.2l-1.9,4.2c-0.2,0.4-0.6,0.6-1,0.4l-4.1-1.9
				l-2.5,3.8c-0.2,0.4-0.7,0.5-1.1,0.2l-3.9-2.5l-3,3.5C236.2,128.5,236,128.6,235.8,128.6z"/>
		</g>
	</g>
	<g id="XMLID_39_">
		<g id="XMLID_160_">
			<path id="XMLID_247_" class="st1" d="M121.8,66.1c-0.7,0-1.5-0.4-1.8-1.1c-0.6-1-0.2-2.3,0.8-2.9c8.7-5,24.1-8.6,24.7-8.7
				c1.1-0.3,2.3,0.4,2.5,1.6c0.3,1.1-0.4,2.3-1.6,2.5c-0.2,0-15.4,3.6-23.6,8.3C122.5,66,122.1,66.1,121.8,66.1z"/>
		</g>
	</g>
	<g id="XMLID_19_">
		<g id="XMLID_157_">
			<path id="XMLID_451_" class="st1" d="M107.5,154.8c-3.3,0-6.5-1.1-8.8-3c-3.5-3.1-5.7-9.3-6.1-17.7c-0.5-10.1,1.3-22.7,5.5-37.7
				c0-0.1,0.1-0.2,0.1-0.3l4.6-10.9c0.2-13.9,8.6-26.8,9-27.4c0.6-1,2-1.2,2.9-0.6c1,0.6,1.2,2,0.6,2.9l0,0c0,0-0.1,0.1-0.2,0.4
				c0.1,0,0.2,0.1,0.3,0.1c1.1,0.5,1.6,1.7,1.1,2.8L107,86.1c0,2.7,0.4,5.5,1.3,8.1c1.7,4.9,4,10.3,6.3,15.4
				c5.5,12.6,10.8,24.4,8.3,33.1c-1.7,5.8-5.5,9.8-10.8,11.4C110.5,154.6,109,154.8,107.5,154.8z M102.1,97.7
				c-4,14.5-5.8,26.7-5.3,36.2c0.5,10,3.5,13.6,4.7,14.7c2.2,1.9,5.9,2.5,9.3,1.5c2.3-0.7,6.3-2.7,8-8.5c2.1-7.2-3.1-18.9-8.1-30.3
				c-2.3-5.2-4.7-10.6-6.4-15.7c-0.2-0.6-0.4-1.2-0.5-1.8L102.1,97.7z"/>
		</g>
	</g>
	<g id="XMLID_57_">
		<g id="XMLID_156_">
			<path id="XMLID_246_" class="st1" d="M116.8,65.1c-1.1,0-1.7-0.7-1.8-1c-0.6-1.1-0.3-2.2,0.9-3.3c0.4-0.3,1-0.8,1.7-1.4
				c1.2-0.9,2.9-2.2,5.1-3.7c3.7-2.6,7.4-5.1,7.4-5.2c1-0.7,2.3-0.4,2.9,0.6c0.1,0.2,0.2,0.4,0.3,0.6c1.3-0.8,2.1-1.2,2.1-1.2
				c1-0.6,2.3-0.2,2.9,0.8c0.6,1,0.2,2.3-0.8,2.9c-0.1,0.1-9.6,5.5-17.9,9.9c-0.7,0.4-1.2,0.6-1.6,0.8
				C117.6,65,117.2,65.1,116.8,65.1z"/>
		</g>
	</g>
	<g id="XMLID_61_">
		<g id="XMLID_155_">
			<path id="XMLID_245_" class="st1" d="M177.2,68.6c0-0.1-2-7.1-14.4-15.9c-6.4-4.6-12.2-5.9-15.8-6.2c-3.6-0.3-6,0.3-6.4,0.4
				l-5.8,2.5c-1.1,0.5-2.3-0.1-2.8-1.1c-0.5-1.1,0.1-2.3,1.1-2.8l6-2.5c0.1,0,0.1,0,0.2-0.1c0.5-0.2,12-3.7,26.1,6.3
				c13.9,9.8,16,18,16.1,18.3L177.2,68.6L177.2,68.6z"/>
		</g>
	</g>
	<g id="XMLID_62_">
		<g id="XMLID_154_">
			<path id="XMLID_244_" class="st1" d="M303.5,145.8c-1.1,0-2.1-0.9-2.1-2c-0.1-1.2,0.8-2.2,2-2.2c0.5,0,53-3,69.4-23.1
				c0.3-1.2,1.3-7.3-5.9-17.2c-5.8-7.9-15.4-11.2-23.9-14.2c-4.2-1.5-8.2-2.9-11.4-4.7c-2.4-1.4-4.3-2.6-6.1-3.7
				c-5.3-3.3-9.8-6.2-25.3-11.8c-20.2-7.3-23-8.6-23.3-8.8c-0.4-0.2-0.7-0.6-0.9-1c0-0.1-7.7-7.9-12.6-11.4
				c-4.7-3.4-8.6-4.5-19.5-6.1l-1.6-0.2c-12.3-1.7-53.3-21.4-55.1-22.2c-1.1-0.5-1.5-1.8-1-2.8s1.8-1.5,2.8-1
				c0.4,0.2,42.2,20.2,53.8,21.8l1.6,0.2c11.5,1.6,15.9,2.8,21.4,6.8c4.9,3.5,12.5,10.2,13.6,12.4c1.5,0.6,6.5,2.7,22.1,8.3
				c16,5.8,20.7,8.7,26.2,12.2c1.8,1.1,3.6,2.3,6,3.6c2.9,1.6,6.7,3,10.7,4.4c9.1,3.2,19.4,6.7,25.9,15.7
				c9.6,13.2,6.5,21.2,6.4,21.5c-0.1,0.2-0.2,0.3-0.3,0.5c-7.3,9.2-21.8,16.2-43.1,20.8c-15.7,3.4-29.5,4.1-29.6,4.1
				C303.6,145.8,303.6,145.8,303.5,145.8z"/>
		</g>
	</g>
	<g id="XMLID_63_">
		<g id="XMLID_153_">
			<path id="XMLID_243_" class="st1" d="M319,156.2c-1.1,0-2-0.9-2.1-2c-0.1-1.2,0.8-2.2,2-2.2l0,0c0.3,0,34.7-2.2,54.7-17.6
				c0.1-2.6,0.3-10.1-0.5-17.9c-0.1-1.2,0.7-2.2,1.9-2.3c1.2-0.1,2.2,0.7,2.3,1.9c1,10,0.5,19.1,0.5,19.5c0,0.6-0.3,1.2-0.8,1.5
				c-8.8,7-21.3,12.4-36.9,15.9c-11.6,2.6-20.5,3.2-20.9,3.2C319,156.2,319,156.2,319,156.2z"/>
		</g>
	</g>
	<g id="XMLID_60_">
		<g id="XMLID_152_">
			<path id="XMLID_242_" class="st1" d="M51.8,52.8c-1.1,0-2-0.8-2.1-1.9c0-0.2-0.4-5.1,1.1-12.8c1.4-7,4.8-17.6,12.9-29
				c5.4-7.6,10.9-9.8,22.5-9c8.5,0.6,12.2,2.5,16.2,4.5c1.5,0.8,3,1.6,4.9,2.3c0.9,0.4,2,0.8,3,1.2c8.5,3.5,20.1,8.2,28.1,9.2
				c0.6,0.1,1.2,0.2,1.9,0.2c8.8,1.1,17.9,2.3,31.9,0.4c1.2-0.2,2.2,0.7,2.4,1.8c0.2,1.2-0.7,2.2-1.8,2.4c-14.5,1.9-24.3,0.7-33-0.4
				c-0.6-0.1-1.2-0.2-1.9-0.2c-8.6-1.1-20.5-5.9-29.2-9.5c-1.1-0.4-2.1-0.8-3-1.2c-2.1-0.8-3.7-1.7-5.3-2.5c-3.8-2-6.9-3.5-14.5-4
				c-11.2-0.8-14.7,1.5-18.8,7.2C59.5,22.2,56.3,32.2,55,38.8c-1.4,7.1-1.1,11.7-1.1,11.7c0.1,1.2-0.8,2.2-1.9,2.3
				C52,52.8,51.9,52.8,51.8,52.8z"/>
		</g>
	</g>
	<g id="XMLID_37_">
		<g id="XMLID_151_">
			<path id="XMLID_241_" class="st1" d="M120.2,47.3c-2.2,0-4.8-0.1-7.7-0.4c-7.4-0.7-18.1-2.8-27.1-8.7
				C68.2,27,63.6,11.6,63.4,10.9c-0.3-1.1,0.3-2.3,1.5-2.6C66,8,67.2,8.6,67.5,9.8c0,0.2,4.4,14.6,20.2,25
				c14.2,9.3,33.4,8.5,37.5,8.2c1.6-1.7,6.1-5.9,11.3-4.5c0.3,0,1.8,0,7.5-3.3c3.9-2.3,8.4-5.3,12.8-8.2c8.2-5.4,12.9-8.5,15.3-8.9
				c0.6-0.1,1.2-0.2,1.8-0.3c6.7-1.1,9-1.5,17.8,0.1c1.2,0.2,1.9,1.3,1.7,2.5c-0.2,1.2-1.3,1.9-2.5,1.7c-8.1-1.5-9.8-1.2-16.4-0.1
				c-0.6,0.1-1.1,0.2-1.8,0.3c-1.7,0.3-8.3,4.7-13.7,8.2c-12.2,8.1-18.9,12.2-22.7,12.2c-0.4,0-0.8,0-1.1-0.1
				c-3.7-1-7.5,3.7-7.5,3.7c-0.4,0.4-0.9,0.7-1.4,0.8C126.3,47.1,123.9,47.3,120.2,47.3z"/>
		</g>
	</g>
	<g id="XMLID_66_">
		<g id="XMLID_13_">
			<path id="XMLID_240_" class="st1" d="M258.6,120.3c-0.4,0-0.8-0.3-0.8-0.8c0-0.4,0.3-0.8,0.8-0.8c0.1,0,10.6-0.1,22.3-3.7
				c10.8-3.3,24.9-10.1,31-24.5c0.1-0.3,0.5-0.5,0.8-0.5c0.2,0,16.8,2.2,22.8-8.6c0.2-0.4,0.7-0.5,1.1-0.3c0.4,0.2,0.5,0.7,0.3,1.1
				c-2.7,4.9-7.8,8.1-14.8,9.2c-4.1,0.7-7.7,0.4-9,0.3c-2.8,6.4-7.4,11.8-13.5,16.2c-5,3.6-11.2,6.5-18.2,8.6
				C269.4,120.2,258.8,120.3,258.6,120.3C258.7,120.3,258.7,120.3,258.6,120.3z"/>
		</g>
	</g>
	<g id="XMLID_65_">
		<g id="XMLID_12_">
			<path id="XMLID_239_" class="st1" d="M302.4,85.7c-0.1,0-0.2,0-0.4-0.1l-5.4-2.8c-0.4-0.2-0.5-0.7-0.3-1c0.2-0.4,0.7-0.5,1-0.3
				l4.9,2.5l3.2-3.3c0.3-0.3,0.7-0.3,1-0.1l3.7,2.4l2.2-3.8c0.2-0.3,0.5-0.5,0.9-0.4l4.2,1.1l0.5-4.3c0-0.3,0.3-0.6,0.6-0.7l5.1-1
				c0.4-0.1,0.8,0.2,0.9,0.6c0.1,0.4-0.2,0.8-0.6,0.9l-4.6,0.9l-0.6,4.6c0,0.2-0.2,0.4-0.3,0.5s-0.4,0.2-0.6,0.1l-4.4-1.2l-2.3,4
				c-0.1,0.2-0.3,0.3-0.5,0.4c-0.2,0.1-0.4,0-0.6-0.1l-3.8-2.5l-3.2,3.3C302.9,85.6,302.7,85.7,302.4,85.7z"/>
		</g>
	</g>
	<g id="XMLID_67_">
		<g id="XMLID_11_">
			<path id="XMLID_238_" class="st1" d="M247.4,113.9c-0.2,0-0.3-0.1-0.5-0.2l-4.3-3.3c-0.3-0.3-0.4-0.8-0.1-1.1
				c0.3-0.3,0.8-0.4,1.1-0.1l3.7,2.9l3.2-3.4c0.3-0.3,0.7-0.3,1-0.1l4,2.6l2.9-3.7c0.2-0.3,0.6-0.4,1-0.2l4.2,2.2l2.6-3.9
				c0.2-0.3,0.6-0.4,0.9-0.3l4.4,1.8l2.2-4.2c0.2-0.3,0.5-0.5,0.9-0.4l4.5,1.3l1.6-4.4c0.1-0.3,0.5-0.6,0.8-0.5l4.7,0.6l0.8-4.6
				c0.1-0.4,0.4-0.6,0.7-0.6l4.7-0.3l-0.1-4.7c0-0.4,0.2-0.7,0.6-0.8l4.5-1.3l-1.2-4.5c-0.1-0.4,0.1-0.8,0.6-1
				c0.4-0.1,0.8,0.1,1,0.6l1.4,5.3c0.1,0.4-0.1,0.8-0.5,0.9l-4.6,1.3l0.1,4.8c0,0.4-0.3,0.8-0.7,0.8l-4.8,0.3l-0.9,4.7
				c-0.1,0.4-0.5,0.7-0.9,0.6l-4.8-0.6l-1.6,4.5c-0.1,0.4-0.6,0.6-0.9,0.5l-4.6-1.3l-2.2,4.3c-0.2,0.4-0.6,0.5-1,0.4l-4.4-1.8
				l-2.6,4c-0.2,0.3-0.7,0.4-1,0.3l-4.2-2.2l-3,3.7c-0.2,0.3-0.7,0.4-1,0.2l-4-2.6l-3.3,3.5C247.8,113.8,247.6,113.9,247.4,113.9z"
				/>
		</g>
	</g>
	<g id="XMLID_15_">
		<g id="XMLID_10_">
			<path id="XMLID_237_" class="st1" d="M221.4,100.3c-0.2,0-0.3-0.1-0.5-0.2c-0.3-0.3-0.4-0.8-0.1-1.1c0.1-0.2,13.8-17.7,16.1-23
				c2.2-5,1.4-10.9-0.8-13.8c-2-2.6-8.1-7.9-13.5-12.5l-1.4-1.2c-5.9-5-25.3-22.6-25.5-22.8c-0.3-0.3-0.3-0.8-0.1-1.1
				c0.3-0.3,0.8-0.3,1.1-0.1c0.2,0.2,19.6,17.7,25.5,22.7l1.4,1.2c5.7,4.9,11.6,10,13.7,12.7c2.4,3.2,3.5,9.6,0.9,15.3
				c-2.4,5.4-15.8,22.6-16.3,23.3C221.8,100.2,221.6,100.3,221.4,100.3z"/>
		</g>
	</g>
	<g id="XMLID_69_">
		<g id="XMLID_9_">
			<path id="XMLID_236_" class="st1" d="M217.6,97.1c-0.2,0-0.3,0-0.4-0.1c-0.4-0.2-0.4-0.7-0.2-1.1c0.1-0.2,11.9-17.3,14.4-21.4
				c2.3-3.8,2.7-5.6-2.3-11.1c-5.1-5.6-41.8-36.5-42.2-36.9c-0.3-0.3-0.4-0.8-0.1-1.1c0.3-0.3,0.8-0.4,1.1-0.1
				c1.5,1.3,37.1,31.3,42.3,37c5.3,5.8,5.3,8.4,2.5,13c-2.5,4.1-14,20.8-14.4,21.5C218.1,96.9,217.8,97.1,217.6,97.1z"/>
		</g>
	</g>
	<g id="XMLID_70_">
		<g id="XMLID_8_">
			<path id="XMLID_235_" class="st1" d="M104.7,64.4c-0.3,0-0.6-0.2-0.7-0.5l-1.7-4.4l-4.6,1.1c-0.4,0.1-0.8-0.1-0.9-0.5l-1.5-4.5
				l-4.6,0.8c-0.4,0.1-0.8-0.2-0.9-0.6l-1.3-4.5L83.8,52c-0.4,0.1-0.8-0.2-0.9-0.6l-1.1-4.6l-4.7,0.5c-0.4,0-0.8-0.2-0.8-0.6l-1-4.6
				l-4.7,0.3c-0.4,0-0.8-0.2-0.8-0.6L69,37.1l-4.7,0.2c-0.4,0-0.7-0.3-0.8-0.7L62.8,32l-4.7,0c0,0,0,0,0,0c-0.4,0-0.7-0.3-0.8-0.7
				L56.7,26c0-0.4,0.3-0.8,0.7-0.9c0.4,0,0.8,0.3,0.9,0.7l0.5,4.6l4.7,0c0,0,0,0,0,0c0.4,0,0.7,0.3,0.8,0.7l0.7,4.6l4.7-0.2
				c0.4,0,0.7,0.3,0.8,0.6l0.8,4.6l4.7-0.3c0.4,0,0.7,0.2,0.8,0.6l1,4.6l4.7-0.5c0.4,0,0.7,0.2,0.8,0.6l1.1,4.5l4.6-0.6
				c0.4-0.1,0.7,0.2,0.9,0.6l1.3,4.5l4.6-0.8c0.4-0.1,0.8,0.2,0.9,0.5l1.5,4.4l4.6-1c0.4-0.1,0.8,0.1,0.9,0.5l1.7,4.3l4.5-1.3
				c0.4-0.1,0.8,0.1,1,0.5c0.1,0.4-0.1,0.8-0.5,1l-5.2,1.5C104.9,64.4,104.8,64.4,104.7,64.4z"/>
		</g>
	</g>
	<g id="XMLID_140_">
		<g id="XMLID_150_">
			<path id="XMLID_234_" class="st1" d="M222.5,70.2c-0.7,0-1.4-0.3-1.8-1c-0.6-1-0.3-2.3,0.6-2.9l37.8-23.9
				c0.8-0.7,1.7-2.2,4.2-1.3c1,0.4,3-0.3,4.6,3.2c0.5,1.1-0.6,2.2-1.7,2.4c-1.2,0.2-2.2-0.6-2.4-1.7c0-0.2-0.1-0.3-0.1-0.5
				c-0.5,0.1,0.3-0.8-0.2-0.3c-0.1,0.1-0.2,0.1-0.3,0.2l-39.6,25.4C223.3,70.1,222.9,70.2,222.5,70.2z"/>
		</g>
	</g>
	<g id="XMLID_68_">
		<g id="XMLID_137_">
			<path id="XMLID_233_" class="st1" d="M227.6,53.7c0.2-0.5-0.5,2.7,4.1-2.8c1.9-2.2,7.1-11.5,9.6-13.2c1-0.6,2.3-0.3,2.9,0.6
				c0.6,1,0.3,2.3-0.6,2.9c-1,0.7-3.5,6.1-8.6,12.3c-4.2,5-3.7,2.2-3.7,2.3"/>
		</g>
	</g>
	<g id="XMLID_82_">
		<g id="XMLID_149_">
			<path id="XMLID_232_" class="st1" d="M184.2,70.2c-0.2,0-0.4,0-0.6-0.1c-1.1-0.3-1.8-1.5-1.4-2.6c0.1-0.4,11.7-39.3,9.1-52.9
				c-0.2-1.1,0.5-2.3,1.7-2.5c1.1-0.2,2.3,0.5,2.5,1.7c2.9,14.6-8.7,53.2-9.2,54.9C186,69.6,185.1,70.2,184.2,70.2z"/>
		</g>
	</g>
	<g id="XMLID_83_">
		<g id="XMLID_148_">
			<path id="XMLID_231_" class="st1" d="M157.8,63.2c-0.3,0-0.7-0.1-1-0.2c-1-0.5-1.4-1.8-0.9-2.9c2.1-3.9,20.6-38.7,27.9-44.1
				c0.9-0.7,2.3-0.5,3,0.5c0.7,0.9,0.5,2.3-0.5,3c-5.5,4.1-21.1,32.2-26.6,42.7C159.3,62.8,158.6,63.2,157.8,63.2z"/>
		</g>
	</g>
	<g id="XMLID_74_">
		<g id="XMLID_147_">
			<path id="XMLID_230_" class="st1" d="M233.5,36.6c-0.6,0-0.9,0-1,0c-1.2,0-2.1-1-2.1-2.2c0-1.2,1-2.1,2.2-2.1
				c9.4,0.2,25.4-1.3,28.5-5.9c0.4-0.6,0.8-1.4,0.1-3c-2.4-5.9-15-9.2-35.5-9.2c0,0-0.1,0-0.1,0c-16.2,0-31.8,2-32,2.1
				c-1.2,0.2-2.2-0.7-2.4-1.8c-0.2-1.2,0.7-2.2,1.8-2.4c0.2,0,16-2.1,32.6-2.1c0,0,0.1,0,0.1,0c9.8,0,17.9,0.7,24.2,2.2
				c8.3,1.9,13.5,5.2,15.3,9.7c1.3,3.2,0.4,5.5-0.6,6.9c-2.5,3.6-8.5,5.9-18.5,7C240.6,36.5,235.6,36.6,233.5,36.6z"/>
		</g>
	</g>
	<g id="XMLID_35_">
		<circle id="XMLID_229_" class="st1" cx="141.5" cy="181.2" r="2.9"/>
	</g>
	<g id="XMLID_40_">
		<circle id="XMLID_228_" class="st1" cx="157.6" cy="172.9" r="2.9"/>
	</g>
	<g id="XMLID_41_">
		<circle id="XMLID_227_" class="st1" cx="176.2" cy="165.3" r="2.9"/>
	</g>
	<g id="XMLID_81_">
		<circle id="XMLID_226_" class="st1" cx="153.6" cy="124.7" r="2.9"/>
	</g>
	<g id="XMLID_85_">
		<circle id="XMLID_225_" class="st1" cx="121.4" cy="124.5" r="2.9"/>
	</g>
	<g id="XMLID_105_">
		<circle id="XMLID_224_" class="st1" cx="138.5" cy="123.5" r="2.9"/>
	</g>
	<g id="XMLID_86_">
		<circle id="XMLID_223_" class="st1" cx="82.3" cy="137.8" r="2.9"/>
	</g>
	<g id="XMLID_104_">
		<circle id="XMLID_222_" class="st1" cx="104.9" cy="126.4" r="2.9"/>
	</g>
	<g id="XMLID_54_">
		<circle id="XMLID_221_" class="st1" cx="67.6" cy="132.3" r="2.9"/>
	</g>
	<g id="XMLID_88_">
		<circle id="XMLID_220_" class="st1" cx="55.3" cy="126.6" r="2.9"/>
	</g>
	<g id="XMLID_89_">
		<circle id="XMLID_219_" class="st1" cx="43.1" cy="121.1" r="2.9"/>
	</g>
	<g id="XMLID_263_">
		<circle id="XMLID_264_" class="st1" cx="33.1" cy="114.5" r="2.9"/>
	</g>
	<g id="XMLID_90_">
		<circle id="XMLID_218_" class="st1" cx="59.5" cy="39.9" r="2.6"/>
	</g>
	<g id="XMLID_38_">
		<circle id="XMLID_217_" class="st1" cx="270.3" cy="113.1" r="2.1"/>
	</g>
	<g id="XMLID_123_">
		<circle id="XMLID_216_" class="st1" cx="259.9" cy="115.2" r="2.1"/>
	</g>
	<g id="XMLID_94_">
		<circle id="XMLID_215_" class="st1" cx="280.4" cy="109.5" r="2.1"/>
	</g>
	<g id="XMLID_95_">
		<circle id="XMLID_214_" class="st1" cx="290.1" cy="105.4" r="2.1"/>
	</g>
	<g id="XMLID_96_">
		<circle id="XMLID_213_" class="st1" cx="298.6" cy="98.6" r="2.1"/>
	</g>
	<g id="XMLID_97_">
		<circle id="XMLID_212_" class="st1" cx="304.9" cy="89.9" r="2.1"/>
	</g>
	<g id="XMLID_121_">
		<circle id="XMLID_211_" class="st1" cx="317" cy="86.1" r="2.1"/>
	</g>
	<g id="XMLID_122_">
		<circle id="XMLID_210_" class="st1" cx="325.8" cy="82" r="2.1"/>
	</g>
	<g id="XMLID_47_">
		<circle id="XMLID_209_" class="st1" cx="67.6" cy="45.6" r="2.6"/>
	</g>
	<g id="XMLID_265_">
		<circle id="XMLID_266_" class="st1" cx="75.1" cy="52.1" r="2.6"/>
	</g>
	<g id="XMLID_79_">
		<circle id="XMLID_208_" class="st1" cx="83.5" cy="57.8" r="2.6"/>
	</g>
	<g id="XMLID_91_">
		<circle id="XMLID_207_" class="st1" cx="22.1" cy="107.6" r="2.9"/>
	</g>
	<g id="XMLID_92_">
		<circle id="XMLID_206_" class="st1" cx="12.6" cy="98.9" r="2.9"/>
	</g>
	<g id="XMLID_87_">
		<circle id="XMLID_205_" class="st1" cx="74" cy="147.7" r="2.9"/>
	</g>
	<g id="XMLID_42_">
		<circle id="XMLID_204_" class="st1" cx="192.4" cy="161" r="2.9"/>
	</g>
	<g id="XMLID_43_">
		<circle id="XMLID_203_" class="st1" cx="211.5" cy="158.5" r="2.9"/>
	</g>
	<g id="XMLID_44_">
		<circle id="XMLID_202_" class="st1" cx="227.4" cy="154.8" r="2.9"/>
	</g>
	<g id="XMLID_45_">
		<circle id="XMLID_201_" class="st1" cx="237" cy="145.5" r="2.9"/>
	</g>
	<g id="XMLID_46_">
		<circle id="XMLID_200_" class="st1" cx="239.6" cy="132.3" r="2.9"/>
	</g>
	<g id="XMLID_48_">
		<circle id="XMLID_199_" class="st1" cx="257.6" cy="128.3" r="2.9"/>
	</g>
	<g id="XMLID_50_">
		<g id="XMLID_2_">
			<path id="XMLID_198_" class="st1" d="M58.9,190c-1.6,0-2.9-1.3-2.9-2.9v-16.2c0-1.6,1.3-2.9,2.9-2.9c1.6,0,2.9,1.3,2.9,2.9v16.2
				C61.8,188.7,60.5,190,58.9,190z"/>
		</g>
	</g>
	<g id="XMLID_51_">
		<path id="XMLID_164_" class="st1" d="M64.6,185.2c-0.6,0-1.1-0.5-1.1-1.1v-10.4c0-0.6,0.5-1.1,1.1-1.1s1.1,0.5,1.1,1.1v10.4
			C65.7,184.7,65.2,185.2,64.6,185.2z"/>
	</g>
	<g id="XMLID_52_">
		<path id="XMLID_163_" class="st1" d="M67.6,184.5c-0.6,0-1.1-0.5-1.1-1.1v-10.4c0-0.6,0.5-1.1,1.1-1.1s1.1,0.5,1.1,1.1v10.4
			C68.7,184,68.2,184.5,67.6,184.5z"/>
	</g>
	<g id="XMLID_53_">
		<path id="XMLID_162_" class="st1" d="M52.6,186.2c-0.6,0-1.1-0.5-1.1-1.1V170c0-0.6,0.5-1.1,1.1-1.1s1.1,0.5,1.1,1.1v15.1
			C53.7,185.7,53.2,186.2,52.6,186.2z"/>
	</g>
	<g id="XMLID_55_" class="st2">
		<path id="XMLID_7_" class="st1" d="M17.4,47.5c0,0-10.1,7-8.3,13s17.6,20,17.6,20S44.5,95.8,55.5,94c11-1.8,34.2-9.6,37.3-15.1
			c3.1-5.5,12.1-12.1,12.1-12.1S54,51.7,44.8,49s-24.3-4.7-25-3.5c-0.8,1.2-2.8,2-2.8,2"/>
	</g>
	<g id="XMLID_98_">
		<path id="XMLID_197_" class="st1" d="M8,148.9"/>
	</g>
	<g id="XMLID_99_">
		<g id="XMLID_146_">
			<path id="XMLID_196_" class="st1" d="M152.2,106.6c-0.8,0-1.5-0.4-1.9-1.2c-0.5-1.1-0.1-2.3,1-2.8c8.4-4.1,25.9-21.1,30.6-25.7
				c-0.4-0.5-0.6-1.2-0.5-1.9c0.3-1.1,1.4-1.8,2.5-1.6c1.9,0.4,2.9,1.3,3.1,2.6c0.2,1.2-0.5,2.2-1.2,2.8
				c-1.9,1.9-22.7,22.6-32.7,27.5C152.8,106.6,152.5,106.6,152.2,106.6z"/>
		</g>
	</g>
	<g id="XMLID_110_">
		<g id="XMLID_111_">
			<path id="XMLID_195_" class="st1" d="M164.3,79.5L158.1,94c-0.3,0.8-0.3,0.2-1.2,0.2c-0.3,0-1-0.5-1.2-0.6
				c-1.1-0.5-1.8-0.6-1.4-1.7l6.1-14.1"/>
		</g>
	</g>
	<g id="XMLID_117_">
		<g id="XMLID_145_">
			<path id="XMLID_194_" class="st1" d="M126.8,92c-1,0-1.9-0.7-2.1-1.7c-0.7-3.3,1.8-12.6,2.3-14.5c1-3.5,3.6-12.1,7-17.4
				c0.6-1,1.9-1.3,2.9-0.6c1,0.6,1.3,1.9,0.6,2.9c-2.1,3.3-4.5,9.4-6.5,16.2c-1.9,6.8-2.5,11.5-2.3,12.4c0.2,1.1-0.5,2.3-1.6,2.5
				C127.1,92,126.9,92,126.8,92z"/>
		</g>
	</g>
	<g id="XMLID_33_">
		<g id="XMLID_120_">
			<path id="XMLID_193_" class="st1" d="M140.7,81.7c4.1-1.4,13-6.7,17.8-9.5c2.8-1.7,4.2-2.5,4.8-2.7c2-0.8,3.1-0.2,3.7,0.5
				c0.5,0.6,1.1,1.9-0.3,3.9c-0.7,1-2,1.2-2.9,0.6c-0.1-0.1-0.2-0.2-0.3-0.3c-0.8,0.5-1.8,1.1-2.8,1.6c-5.2,3.1-12.3,7.5-16.8,9"/>
		</g>
	</g>
	<g id="XMLID_112_">
		<g id="XMLID_118_">
			<path id="XMLID_192_" class="st1" d="M152.1,91l18.3-10.1c1-0.6,3.2,0.5,4.2,0.9c1.1,0.5,2.5,0.2,1.5,0.7l-19.6,10.5"/>
		</g>
	</g>
	<g id="XMLID_115_">
		<g id="XMLID_119_">
			<path id="XMLID_191_" class="st1" d="M153.4,73.2c-0.5,1.9-8.9,19.6-11.7,25.5c-0.4,0.8-1.1,1.2-1.9,1.2c-0.3,0-0.6-0.1-0.9-0.2
				c-1.1-0.5-1.5-1.8-1-2.8c4.4-9.3,11.5-24.6,12-26.3"/>
		</g>
	</g>
	<g id="XMLID_34_">
		<g id="XMLID_144_">
			<path id="XMLID_190_" class="st1" d="M115,80.1c-0.9,0-1.7-0.5-2.1-1.3c-0.5-1-1.3-2.4,5.9-13.8c3.2-5.1,8-11.9,11.6-15.7
				c0.8-0.8,2.1-0.9,3-0.1c0.8,0.8,0.9,2.1,0.1,3c-2.7,2.8-6.7,8.2-10.5,14.1c-3.7,5.7-5.5,9.3-6,10.7c0.1,0.2,0.2,0.4,0.2,0.6
				c0.2,1.2-0.6,2.2-1.8,2.4C115.2,80.1,115.1,80.1,115,80.1z"/>
		</g>
	</g>
	<g id="XMLID_116_">
		<g id="XMLID_29_">
			<path id="XMLID_189_" class="st1" d="M128.5,71.5c2.5-0.4,17.1-4.9,22-6.9c2.9-1.2,5.2-1.7,6.5-0.4c0.7,0.7,1,1.7,0.7,2.6
				c-0.4,1.1-1.6,1.7-2.7,1.4c-0.3-0.1-0.5-0.2-0.7-0.4c-0.4,0.1-1.2,0.3-2.3,0.8c-4.5,1.8-19.9,6.7-23,7.1c-0.1,0-0.2,0-0.3,0"/>
		</g>
	</g>
	<g id="XMLID_56_">
		<g id="XMLID_143_">
			<path id="XMLID_188_" class="st1" d="M70.6,58.5c-0.3,0-0.7-0.1-1-0.3c-6-3.3-18.2-13.7-18.7-14.2c-0.9-0.8-1-2.1-0.2-3
				c0.8-0.9,2.1-1,3-0.2c0.1,0.1,12.4,10.6,18,13.7c1,0.6,1.4,1.9,0.8,2.9C72.1,58.1,71.4,58.5,70.6,58.5z"/>
		</g>
	</g>
	<g id="XMLID_132_">
		<g id="XMLID_72_">
			<path id="XMLID_187_" class="st1" d="M277.8,57c-0.1,0-0.2,0-0.3-0.1l-43.4-21.1c-0.4-0.2-0.5-0.7-0.4-1c0.2-0.4,0.7-0.5,1-0.4
				l43.4,21.1c0.4,0.2,0.5,0.7,0.4,1C278.4,56.8,278.1,57,277.8,57z"/>
		</g>
	</g>
	<g id="XMLID_138_">
		<g id="XMLID_141_">
			<path id="XMLID_186_" class="st1" d="M210.6,61.8c-0.3,0-0.6-0.1-0.9-0.2c-1.1-0.5-1.5-1.8-1-2.8l12.6-25.9
				c0.5-1.1,1.8-1.5,2.8-1c1.1,0.5,1.5,1.8,1,2.8l-12.6,25.9C212.1,61.4,211.3,61.8,210.6,61.8z"/>
		</g>
	</g>
	<g id="XMLID_73_">
		<g id="XMLID_139_">
			<path id="XMLID_185_" class="st1" d="M225.1,50.7L258,42c1.1-0.3,2.3,0.4,2.6,1.5c0.3,1.1-0.4,2.3-1.5,2.6l-30.4,8.1"/>
		</g>
	</g>
	<g id="XMLID_1_">
		<g id="XMLID_136_">
			<path id="XMLID_184_" class="st1" d="M204.9,34.5c-0.8,0-1.5-0.4-1.9-1.2c-0.5-1.1-0.1-2.3,1-2.8c0.4-0.2,4.5-2,13.4-1.2
				c4.8,0.4,6.2-0.7,6.4-0.9c0.6-0.9,1.8-1.2,2.8-0.6c1,0.6,1.4,1.9,0.8,2.9c-0.3,0.6-2.4,3.6-10.3,2.9c-7.8-0.7-11.1,0.8-11.1,0.8
				C205.5,34.4,205.2,34.5,204.9,34.5z"/>
		</g>
	</g>
	<g id="XMLID_76_">
		<g id="XMLID_135_">
			<path id="XMLID_183_" class="st1" d="M197.8,50c-0.2,0-0.5,0-0.7-0.1c-1.1-0.4-1.7-1.6-1.2-2.7c0.7-1.9,7.2-19.1,11.8-23.4
				c0.9-0.8,2.2-0.7,3,0.1c0.8,0.9,0.7,2.2-0.1,3c-3.3,3-8.8,16.7-10.7,21.8C199.5,49.5,198.6,50,197.8,50z"/>
		</g>
	</g>
	<g id="XMLID_77_">
		<g id="XMLID_127_">
			<path id="XMLID_274_" class="st1" d="M182.9,36.6c-0.3,0-0.6-0.1-0.8-0.2c-1.1-0.5-1.6-1.7-1.1-2.8c0.1-0.3,1.7-4.1,3.9-8.7
				c-0.5,0.3-0.9,0.5-1.2,0.6c-1.3,0.5-2.3,0-2.8-0.6c-1.1-1.3-0.5-3,0.3-4.9c0.5-1.3,1.3-3,2.4-5c1.8-3.4,3.6-6.6,3.7-6.7
				c0.2-0.3,0.5-0.6,0.8-0.8c1.6-0.9,4.6-2.1,6.3-0.3c0.5,0.5,0.7,1.1,0.8,1.7c0.3,0.1,0.6,0.2,0.9,0.4c0.9,0.7,1.1,2,0.4,3
				c-4.2,5.6-11.5,22.8-11.5,22.9C184.5,36.1,183.7,36.6,182.9,36.6z M189.3,13.2c-0.6,1.1-1.2,2.1-1.7,3.2c0.7-0.7,1.3-1.5,2-2.3
				C189.4,13.8,189.3,13.5,189.3,13.2z"/>
		</g>
	</g>
	<g id="XMLID_84_">
		<g id="XMLID_142_">
			<path id="XMLID_182_" class="st1" d="M212.4,39c16.3-4.1,31.6-4.5,32.2-4.6c1.2,0,2.1,0.9,2.2,2.1c0,1.2-0.9,2.1-2.1,2.2
				c-0.1,0-13.2,0-29.1,3.9"/>
		</g>
	</g>
	<g id="XMLID_75_">
		<path id="XMLID_181_" class="st1" d="M211.5,24c0,0,0.6-3.2-4.9-4.3c-5.5-1.1-15.1-2.8-15.1-2.8"/>
	</g>
</g>
</svg>
