<?xml version="1.0" encoding="utf-8"?>
<!-- Generator: Adobe Illustrator 19.0.0, SVG Export Plug-In . SVG Version: 6.00 Build 0)  -->
<svg version="1.1" id="Layer_1" xmlns="http://www.w3.org/2000/svg" xmlns:xlink="http://www.w3.org/1999/xlink" x="0px" y="0px"
	 viewBox="-279 -64.3 400 480.3" style="enable-background:new -279 -64.3 400 480.3;" xml:space="preserve">
<style type="text/css">
	.st0{opacity:0.6;}
	.st1{fill:#BAAF91;}
	.st2{fill:none;stroke:#BAAF91;stroke-width:26;stroke-linecap:round;stroke-linejoin:round;stroke-miterlimit:10;}
	.st3{opacity:0.4;}
</style>
<g>
	<g id="XMLID_342_" class="st0">
		<path class="st1" d="M-3.9,82.8c0,0,30.2,14.2,29.6,69.6L0,154.7C0,154.7,22.7,143.7-3.9,82.8L-3.9,82.8z"/>
	</g>
	<g id="XMLID_318_">
		<path class="st1" d="M-43.6,376.5c-28.1,0-54.6-3-74.5-8.5c-9.9-2.7-17.8-5.9-23.4-9.6c-6.7-4.3-10.1-9.2-10.2-14.5
			c-0.2-11.4,14.4-20.4,43.2-26.6c2.3-0.5,4.5,1,5,3.2c0.5,2.3-1,4.5-3.2,5c-27.1,5.8-36.6,13.2-36.6,18.2c0.1,4,7.3,10.6,27.4,16.1
			c19.2,5.3,44.9,8.2,72.3,8.2c27.4,0,53.1-2.9,72.4-8.2c20.2-5.5,27.3-12.1,27.3-16c0-5.1-11-13-35.1-18.3c-2.3-0.5-3.7-2.8-3.2-5
			c0.5-2.3,2.8-3.7,5-3.2c12,2.7,22.1,6.2,29.2,10.3c8.3,4.8,12.6,10.3,12.6,16.3c0,5.4-3.4,10.3-10.1,14.6
			c-5.6,3.6-13.5,6.8-23.5,9.6C11,373.5-15.5,376.5-43.6,376.5z"/>
	</g>
	<g id="XMLID_320_">
		<path class="st1" d="M-43.6,398.9c-28.1,0-54.6-3-74.6-8.5c-10-2.7-17.9-5.9-23.5-9.6c-6.7-4.3-10.1-9.2-10.1-14.6
			c0-2.3,1.9-4.2,4.2-4.2s4.2,1.9,4.2,4.2c0,3.9,7.2,10.5,27.3,16c19.3,5.3,45,8.2,72.4,8.2s53.1-2.9,72.4-8.2
			c20.2-5.5,27.3-12.1,27.3-16c0-2.3,1.9-4.2,4.2-4.2s4.2,1.9,4.2,4.2c0,5.4-3.4,10.3-10.1,14.6c-5.6,3.6-13.5,6.8-23.5,9.6
			C11,395.9-15.5,398.9-43.6,398.9z"/>
	</g>
	<g id="XMLID_299_" class="st0">
		<path class="st1" d="M-147.6,372.3c0,26.2,33.8,40.4,100,43.4c65.7,3,116.4-17.4,122.3-34c0,0,8.8-19-0.6-26.6
			c-4.4-3.6-15.1-9.5-16-1c-1,9.4-5.7,27.9-12.2,28.2c-12.9,0.7-69,21.3-119,11.3C-122.9,383.6-147.6,372.3-147.6,372.3z"/>
	</g>
	<g id="XMLID_419_">
		<path class="st1" d="M-43.6,352.8c-23.6,0-47.7-3.1-71.7-9.3c-2.3-0.6-3.6-2.9-3-5.1c0.6-2.3,2.9-3.6,5.1-3
			c23.3,6,46.8,9.1,69.6,9.1c28.8,0,54.3-5.1,70.7-9.3c2.3-0.6,4.6,0.8,5.2,3c0.6,2.3-0.8,4.6-3,5.2
			C12.4,347.6-13.9,352.8-43.6,352.8z"/>
	</g>
	<g id="XMLID_298_">
		<path class="st1" d="M-147.6,370.5c-2.3,0-4.2-1.9-4.2-4.2v-22.4c0-2.3,1.9-4.2,4.2-4.2s4.2,1.9,4.2,4.2v22.4
			C-143.3,368.6-145.2,370.5-147.6,370.5z"/>
	</g>
	<g id="XMLID_297_">
		<path class="st1" d="M60.3,370.5c-2.3,0-4.2-1.9-4.2-4.2v-22.4c0-2.3,1.9-4.2,4.2-4.2s4.2,1.9,4.2,4.2v22.4
			C64.5,368.6,62.7,370.5,60.3,370.5z"/>
	</g>
	<g id="XMLID_296_">
		<path class="st1" d="M-107.7,325.7c-1.4,0-2.8-0.7-3.6-2.1c-1.2-2-0.5-4.6,1.5-5.8c0.2-0.1,23.8-14.5,23.8-32.6
			c0-19.2-9.7-28.5-29.5-28.5c-15.6,0-30.1-5.6-39.5-10.3c-11.8-5.9-22.5-13.9-29.2-21.8c-13-15.3-22.4-39.3-22.4-56.9
			c0-16.8,2.7-27.7,2.8-28.1c0.3-1.1,1-2.1,2-2.6c1-0.6,2.2-0.7,3.3-0.3c60,18.8,141.5,17.8,199.2,13.6
			c62.8-4.5,112-13.7,112.5-13.8c2.2-0.4,4.3,0.9,4.9,3.1c0.1,0.5,2.8,11.3,2.8,28.1c0,17.6-9.4,41.6-22.4,56.9
			c-6.7,7.9-17.4,15.9-29.2,21.8c-9.4,4.7-23.9,10.3-39.5,10.3c-19.9,0-29.5,9.3-29.5,28.5c0,18.2,23.5,32.5,23.8,32.6
			c2,1.2,2.7,3.8,1.5,5.8c-1.2,2-3.8,2.7-5.8,1.5C18.7,324.4-8,308.2-8,285.2c0-11.7,3.2-20.9,9.5-27.2c6.5-6.5,16.1-9.8,28.5-9.8
			c23.5,0,50.1-14.8,62.2-29.1c11.6-13.7,20.4-35.9,20.4-51.4c0-10-1-17.9-1.8-22.2c-13.1,2.3-56.4,9.3-109.2,13.2
			c-37.2,2.7-71.8,3.3-102.9,1.7c-36.8-1.8-68.8-6.7-95.1-14.4c-0.7,4.4-1.7,12-1.7,21.7c0,15.6,8.8,37.7,20.4,51.4
			c12.1,14.3,38.7,29.1,62.2,29.1c12.4,0,22,3.3,28.5,9.8c6.3,6.3,9.5,15.5,9.5,27.2c0,23-26.7,39.2-27.9,39.9
			C-106.2,325.5-106.9,325.7-107.7,325.7z"/>
	</g>
	<g id="XMLID_295_">
		<path class="st1" d="M-188.1,374.9c-16.6,0-32.2-1-44-2.9c-5.9-0.9-10.6-2.1-14-3.3c-1.9-0.7-7.5-2.8-7.5-7.7
			c0-2.3,1.9-4.2,4.2-4.2c1.9,0,3.5,1.3,4,3c1,0.7,5,2.7,17.8,4.4c10.9,1.5,24.9,2.3,39.4,2.3c14.7,0,28.9-0.9,39.9-2.4
			c2.3-0.3,4.4,1.3,4.8,3.6c0.3,2.3-1.3,4.4-3.6,4.8C-158.4,374-172.9,374.9-188.1,374.9z"/>
	</g>
	<g id="XMLID_306_" class="st0">
		<path class="st1" d="M-143.2,387.1c-10.8,1.5-29.3,3.3-44.8,3.3c-33.8,0-59.4-11.5-59.4-16.9c0,0-4-8.2-4.3-13.8
			c0,0,30.5,11.2,53.3,11c22.7-0.2,43.8,0.3,49.5-2.2"/>
	</g>
	<g id="XMLID_294_">
		<path class="st1" d="M-249.3,365.1c-2.1,0-4-1.6-4.2-3.8l-10.4-100.4c-0.1-1.4,0.4-2.7,1.4-3.6s2.4-1.2,3.8-0.9
			c0.2,0,17,4.1,42.2,5.6c23.2,1.4,58.6,0.8,95-9.8c1.3-0.4,2.8-0.1,3.9,0.8c1.1,0.9,1.6,2.2,1.5,3.6l-5.9,70.3
			c-0.2,2.3-2.2,4.1-4.6,3.9c-2.3-0.2-4.1-2.2-3.9-4.6l5.4-64.2c-35.6,9.3-69.5,9.8-92.2,8.4c-17.3-1-30.6-3.2-37.7-4.6l9.8,94.6
			c0.2,2.3-1.4,4.4-3.8,4.6C-249,365.1-249.2,365.1-249.3,365.1z"/>
	</g>
	<g id="XMLID_292_">
		<path class="st1" d="M-228,266.6c-0.6,0-1.2,0-1.8-0.1c-7.7-0.6-13.5-5.4-16.5-8.6l-3.8,2c-0.1,0.1-0.3,0.1-0.4,0.2
			c-1.2,0.5-12.1,4.7-20.4,0.6c-3.8-1.9-6.4-5.3-7.5-9.8c-1.6-6.3,0.1-10.6,1.9-13.1c2.6-3.7,6.5-5.6,9.7-6.6
			c-4.3-17.6-2.3-33,6.1-45.7c7.3-11.2,19.6-20.3,35.7-26.3c12-4.5,21.7-5.8,22.1-5.9c2.3-0.3,4.4,1.3,4.7,3.7
			c0.3,2.3-1.3,4.4-3.7,4.7l0,0c-0.4,0-36.5,5-51.8,28.5c-7.6,11.6-8.9,26.1-3.8,43.1c0.4,1.2,0.2,2.5-0.6,3.6
			c-0.7,1-1.9,1.7-3.1,1.8c-1.7,0.2-6.4,1.2-8.4,4.1c-1.1,1.5-1.3,3.5-0.6,6.1c0.7,2.8,2.1,3.8,3.1,4.3c4,2,10.7,0.2,13.2-0.8
			l6.6-3.5c1.9-1,4.2-0.5,5.5,1.3c0,0.1,5.2,7.3,12.8,7.9c4.9,0.4,10.1-2.1,15.3-7.5c1.4-1.5,3.7-1.7,5.4-0.5c1.3,0.9,2,2.5,1.8,4.1
			c1.2,0.9,7.1,4.2,31.7,2.6c14.8-1,19.3-3.4,20.5-4.2c0.1-0.9,0.4-1.8,1-2.6c0.9-1.1,2.4-1.7,3.9-1.5c1.2,0.2,2.3,0.9,3,1.9
			c1.5,0.5,5.7,1.3,16.1,1.7c2.3,0.1,4.2,2,4.1,4.4c-0.1,2.3-2,4.2-4.4,4.1c-7.4-0.3-12.9-0.8-16.5-1.6c-0.4-0.1-0.8-0.2-1.2-0.3
			c-2.9,2.6-9.3,5.4-25.8,6.5c-25.3,1.7-34.1-1.4-37.8-4.7C-217.2,264.5-222.6,266.6-228,266.6z"/>
	</g>
	<g id="XMLID_291_">
		<path class="st1" d="M102,146.9c-1.1,0-2.2-0.4-3-1.2c-1.7-1.6-1.7-4.3,0-6l0,0c0.1-0.1,13.7-14,12.9-29.4
			c-0.4-7.6-4.4-14.5-11.8-20.6c-1.8-1.5-2.1-4.1-0.6-5.9c1.5-1.8,4.1-2.1,5.9-0.6c9.4,7.6,14.4,16.6,14.9,26.7
			c1,19.2-14.7,35.1-15.3,35.8C104.2,146.5,103.1,146.9,102,146.9z"/>
	</g>
	<g id="XMLID_526_" class="st0">
		<path class="st1" d="M111.8,118.3C117.7,151,70.4,144,70.4,144s10.8-2.3,25.4-11.8S111.8,118.3,111.8,118.3z"/>
	</g>
	<g id="XMLID_302_">
		<path class="st1" d="M92.7,120.8c-1.1,0-2.3-0.5-3.1-1.4c-1.6-1.7-1.5-4.4,0.3-6c0.4-0.4,8.8-8.4,9-22.9c0.2-15-8.6-31.2-26-48.1
			c-1.7-1.6-1.7-4.3-0.1-6c1.6-1.7,4.3-1.7,6-0.1c19.2,18.7,28.8,37,28.6,54.5C107,109,96,119.2,95.6,119.7
			C94.8,120.4,93.7,120.8,92.7,120.8z"/>
	</g>
	<g id="XMLID_290_">
		<path class="st1" d="M-181.5,149.8c-0.1,0-0.2,0-0.4,0c-2.3-0.2-4.1-2.2-3.9-4.6c0.1-0.9,1.9-21.6,12-44.4c6-13.5,13.6-25,22.8-34
			c11.5-11.4,25.4-19,41.2-22.5c35.5-8,62.8-4.6,81.1,10.1c22.4,17.9,22.6,45.8,22.6,47c0,2.3-1.9,4.2-4.2,4.2s-4.2-1.9-4.2-4.2
			c0-0.1-0.1-6.4-2.5-14.6c-3.3-10.8-9-19.4-17-25.8C-50.3,48-75.2,45.2-108,52.5c-25.9,5.8-45.5,23.2-58.1,51.7
			c-9.5,21.5-11.3,41.5-11.3,41.7C-177.5,148.2-179.4,149.8-181.5,149.8z"/>
	</g>
	<g id="XMLID_305_">
		<path class="st1" d="M-3,159c-0.9,0-1.8-0.3-2.6-0.9c-1.9-1.4-2.2-4.1-0.8-5.9c0.2-0.2,14.7-19.7,10.9-41.7
			C2.2,96.9-6.6,85.1-21.5,75.2c-1.9-1.3-2.5-3.9-1.2-5.9c1.3-1.9,3.9-2.5,5.9-1.2c17,11.2,27,25,29.8,41
			c4.4,25.7-11.8,47.3-12.5,48.2C-0.5,158.4-1.8,159-3,159z"/>
	</g>
	<g id="XMLID_304_">
		<path class="st2" d="M-10.3,101.3"/>
	</g>
	<g id="XMLID_336_">
		<path class="st1" d="M-180.2-38.3c-0.1-0.3-0.4-0.5-0.6-0.6c-0.3-0.1-0.6-0.1-0.9,0l-20.5,9.2c-0.6,0.3-0.8,0.9-0.6,1.5
			l68.5,152.6c8.3-0.7,15.8-4.4,23.2-8.5L-180.2-38.3z M-195.5-17.8l14.8-16.3l8.9,19.9l-14.8,16.3L-195.5-17.8z M-178.2,20.9
			l14.8-16.3l8.9,19.9l-14.8,16.3L-178.2,20.9z M-160.8,59.7l14.8-16.3l8.9,19.9l-14.8,16.3L-160.8,59.7z M-143.4,98.4l14.8-16.3
			l8.9,19.9l-14.8,16.3L-143.4,98.4z"/>
	</g>
	<g id="XMLID_444_">
		<path class="st1" d="M-153.8,115.6c-0.1-0.3-0.2-0.6-0.3-0.9l-94.1-75c-0.2-0.2-0.5-0.3-0.8-0.2c-0.3,0-0.6,0.2-0.8,0.4l-14,17.5
			c-0.4,0.5-0.3,1.2,0.2,1.6l100,79.7C-158.3,131.9-151.4,124.7-153.8,115.6z M-235.4,78.5l-17-13.6l5.7-21.2l17,13.6L-235.4,78.5z
			 M-202.2,105l-17-13.6l5.7-21.2l17,13.6L-202.2,105z M-169,131.4l-17-13.6l5.7-21.2l17,13.6L-169,131.4z"/>
	</g>
	<g id="XMLID_315_">
		<path class="st1" d="M50,47.4c-20.9,0-37.8-14.9-37.8-33.1s17-33.1,37.8-33.1S87.8-3.9,87.8,14.3S70.9,47.4,50,47.4z M50-12.6
			c-17.5,0-31.7,12.1-31.7,26.9S32.6,41.3,50,41.3s31.7-12.1,31.7-26.9S67.5-12.6,50-12.6z"/>
	</g>
	<g id="XMLID_428_">
		<path class="st1" d="M18.5,27c-4.6-0.6-10.7-0.9-17.3-0.1C-16,29-29.8,38-38.6,52.9c-1.2,2-0.5,4.6,1.5,5.8
			c0.7,0.4,1.4,0.6,2.2,0.6c1.4,0,2.8-0.7,3.6-2.1c18-30.3,52.6-21.4,55.5-20.5c0.5,0.3,1.2,0.4,1.8,0.4c0.4,0,0.8-0.1,1.2-0.2
			C23.5,34.2,20.6,30.8,18.5,27z"/>
	</g>
	<g id="XMLID_316_" class="st3">
		
			<ellipse transform="matrix(0.998 6.297394e-002 -6.297394e-002 0.998 -3.076020e-003 -3.356)" class="st1" cx="53.2" cy="-1.7" rx="11.8" ry="5.3"/>
	</g>
	<g id="XMLID_289_">
		<path class="st1" d="M-60.8,122.3c-0.9,0-1.7-0.4-2.3-1.1c-1.1-1.3-1-3.2,0.3-4.4c8.4-7.2,29.3-28.6,25-40.9
			c-0.6-1.6,0.3-3.4,1.9-3.9c1.6-0.6,3.4,0.3,3.9,1.9c2.9,8.1-0.9,18.7-11.2,31.4c-7.3,9.1-15.3,15.9-15.6,16.2
			C-59.4,122-60.1,122.3-60.8,122.3z"/>
	</g>
	<g id="XMLID_321_">
		<path class="st1" d="M-76.8,103.3c-0.5,0-1.1-0.1-1.6-0.4c-1.5-0.9-1.9-2.8-1.1-4.2c0.4-0.7,10.2-17.8-5.3-32.8
			c-1.2-1.2-1.3-3.1-0.1-4.4s3.1-1.3,4.4-0.1c10,9.6,11.2,20.1,10.5,27.2c-0.8,7.6-4,13-4.1,13.2C-74.7,102.7-75.7,103.3-76.8,103.3
			z"/>
	</g>
	<g id="XMLID_322_">
		<path class="st1" d="M50,109.9c-1.7,0-3.1-1.4-3.1-3c0-1.7,1.3-3.1,3-3.1c0.1,0,5.4-0.1,12.1-2.5c8.8-3.2,15.5-8.7,20.1-16.3
			c0.9-1.5,2.8-1.9,4.2-1.1c1.5,0.9,1.9,2.8,1.1,4.2c-5.3,8.8-13.4,15.4-23.5,19C56.3,109.8,50.3,109.9,50,109.9
			C50,109.9,50,109.9,50,109.9z"/>
	</g>
	<g id="XMLID_323_">
		<path class="st1" d="M53.2,128.1c-0.5,0-1-0.4-1.1-1c-0.1-0.6,0.3-1.2,0.9-1.3c0.1,0,8.1-1.4,22.1-10.2c0.5-0.3,1.2-0.2,1.6,0.4
			c0.3,0.5,0.2,1.2-0.4,1.6c-14.5,9.1-22.6,10.5-23,10.5C53.4,128.1,53.3,128.1,53.2,128.1z"/>
	</g>
	<g id="XMLID_324_">
		<path class="st1" d="M26,96.5c-1.1,0-2.2-0.6-2.8-1.7c-5-9.8-3.9-18.3-2.1-23.7c1.9-5.9,5.1-9.4,5.2-9.6c1.1-1.3,3.1-1.4,4.4-0.2
			c1.3,1.1,1.4,3.1,0.3,4.3c-0.4,0.5-9.8,11.4-2.2,26.4c0.8,1.5,0.2,3.4-1.3,4.2C26.9,96.4,26.5,96.5,26,96.5z"/>
	</g>
	<g id="XMLID_288_">
		<path class="st1" d="M-7.2,65.8c-0.4,0-0.9,0-1.3-0.1c-2.9-0.3-5.4-1.7-7.2-3.9c-3-4-3-7.5-2.3-9.7C-16.2,45.4-8,41.9-7,41.5
			c1.6-0.6,3.4,0.1,4,1.7c0.6,1.6-0.1,3.4-1.7,4c-1.6,0.7-6.5,3.4-7.4,6.5c-0.1,0.5-0.5,2,1.3,4.3c0.7,0.9,1.6,1.4,2.9,1.5
			c6.4,0.7,17.4-7.4,21.1-10.6c1.3-1.1,3.2-1,4.4,0.3c1.1,1.3,1,3.2-0.3,4.4C15.8,55,2.9,65.8-7.2,65.8z"/>
	</g>
	<g id="XMLID_284_">
		<g class="st0">
			<polygon class="st1" points="-26.2,-17.1 -45,-2.9 -52.8,-12 -32.5,-25.7 			"/>
		</g>
		<g>
			<path class="st1" d="M-45-1.8c-0.3,0-0.6-0.1-0.9-0.4l-7.8-9c-0.2-0.2-0.3-0.6-0.3-0.9c0-0.3,0.2-0.6,0.5-0.8l20.3-13.7
				c0.5-0.3,1.2-0.2,1.5,0.3l6.4,8.6c0.4,0.5,0.3,1.2-0.2,1.6L-44.3-2C-44.5-1.9-44.8-1.8-45-1.8z M-51.1-11.7l6.3,7.3l17.1-12.9
				l-5-6.8L-51.1-11.7z"/>
		</g>
	</g>
	<g id="XMLID_280_">
		<g class="st0">
			<polygon class="st1" points="6.3,-37.2 3.1,-17.2 -7.2,-18.2 -2.7,-38.8 			"/>
		</g>
		<g>
			<path class="st1" d="M3.1-16C3-16,3-16,3-16l-10.3-1c-0.3,0-0.6-0.2-0.8-0.5c-0.2-0.3-0.3-0.6-0.2-0.9L-3.8-39
				c0.1-0.6,0.7-1,1.3-0.9l9.1,1.6c0.6,0.1,1,0.7,0.9,1.3L4.2-17C4.1-16.4,3.6-16,3.1-16z M-5.8-19.2l7.9,0.8L5-36.3l-6.9-1.2
				L-5.8-19.2z"/>
		</g>
	</g>
	<g id="XMLID_277_">
		<g class="st0">
			<polygon class="st1" points="-10.1,-62.5 -7.1,-42.4 -17.2,-40.2 -19.2,-61.2 			"/>
		</g>
		<g>
			<path class="st1" d="M-17.2-39.1c-0.2,0-0.5-0.1-0.7-0.2c-0.3-0.2-0.4-0.5-0.5-0.8l-2-21c-0.1-0.6,0.4-1.2,1-1.2l9.1-1.2
				c0.6-0.1,1.2,0.3,1.3,1l3,20.1c0.1,0.6-0.3,1.2-0.9,1.3L-17-39.1C-17.1-39.1-17.1-39.1-17.2-39.1z M-18-60.2l1.8,18.6l7.8-1.6
				l-2.6-17.9L-18-60.2z"/>
		</g>
	</g>
	<g id="XMLID_326_">
		<g class="st0">
			<polygon class="st1" points="7.7,-63.2 10.6,-44 0.9,-42 -1,-62 			"/>
		</g>
		<g>
			<path class="st1" d="M0.9-40.9c-0.2,0-0.5-0.1-0.7-0.2c-0.3-0.2-0.4-0.5-0.5-0.8l-2-20c-0.1-0.6,0.4-1.2,1-1.2l8.7-1.1
				c0.6-0.1,1.2,0.3,1.3,1l2.9,19.2c0.1,0.6-0.3,1.2-0.9,1.3l-9.7,2C1.1-40.9,1-40.9,0.9-40.9z M0.2-61L2-43.4l7.4-1.5l-2.6-17
				L0.2-61z"/>
		</g>
	</g>
	<g id="XMLID_330_">
		<g class="st0">
			<polygon class="st1" points="28.6,-40.2 31.5,-21.1 21.8,-19.1 19.8,-39.1 			"/>
		</g>
		<g>
			<path class="st1" d="M21.8-17.9c-0.2,0-0.5-0.1-0.7-0.2c-0.3-0.2-0.4-0.5-0.5-0.8l-2-20c-0.1-0.6,0.4-1.2,1-1.2l8.7-1.1
				c0.6-0.1,1.2,0.3,1.3,1l2.9,19.2c0.1,0.6-0.3,1.2-0.9,1.3L22-18C22-18,21.9-17.9,21.8-17.9z M21.1-38.1l1.7,17.7l7.4-1.5l-2.6-17
				L21.1-38.1z"/>
		</g>
	</g>
	<g id="XMLID_276_">
		<g class="st0">
			<polygon class="st1" points="-31.4,-62.6 -28,-39.6 -39.6,-37.2 -41.8,-61.2 			"/>
		</g>
		<g>
			<path class="st1" d="M-39.6-36c-0.2,0-0.5-0.1-0.7-0.2c-0.3-0.2-0.4-0.5-0.5-0.8l-2.3-24c-0.1-0.6,0.4-1.2,1-1.2l10.4-1.4
				c0.6-0.1,1.2,0.3,1.3,1l3.4,23c0.1,0.6-0.3,1.2-0.9,1.3l-11.5,2.4C-39.4-36.1-39.5-36-39.6-36z M-40.6-60.2l2,21.6l9.2-2
				l-3.1-20.8L-40.6-60.2z"/>
		</g>
	</g>
	<g id="XMLID_273_">
		<g class="st0">
			<polygon class="st1" points="-47.5,-37.2 -62.4,-19.3 -71.9,-26.3 -55.5,-44 			"/>
		</g>
		<g>
			<path class="st1" d="M-62.4-18.2c-0.2,0-0.5-0.1-0.7-0.2l-9.5-7c-0.3-0.2-0.4-0.5-0.5-0.8c0-0.3,0.1-0.6,0.3-0.9l16.3-17.7
				c0.4-0.4,1.1-0.5,1.6-0.1l8,6.8c0.5,0.4,0.5,1.1,0.1,1.6l-14.8,17.9C-61.7-18.3-62-18.2-62.4-18.2z M-70.2-26.5l7.6,5.6
				l13.4-16.2l-6.3-5.4L-70.2-26.5z"/>
		</g>
	</g>
	<g id="XMLID_267_">
		<g class="st0">
			<polygon class="st1" points="-80.3,-31.2 -95.1,-13.3 -104.7,-20.3 -88.3,-38 			"/>
		</g>
		<g>
			<path class="st1" d="M-95.1-12.2c-0.2,0-0.5-0.1-0.7-0.2l-9.5-7c-0.3-0.2-0.4-0.5-0.5-0.8c0-0.3,0.1-0.6,0.3-0.9l16.3-17.7
				c0.4-0.4,1.1-0.5,1.6-0.1l8,6.8c0.5,0.4,0.5,1.1,0.1,1.6l-14.8,17.9C-94.5-12.3-94.8-12.2-95.1-12.2z M-103-20.5l7.6,5.6
				l13.4-16.2l-6.3-5.4L-103-20.5z"/>
		</g>
	</g>
	<g id="XMLID_180_">
		<g class="st0">
			<polygon class="st1" points="-3.8,2.4 -20,14.3 -26.8,6.7 -9.3,-4.8 			"/>
		</g>
		<g>
			<path class="st1" d="M-20,15.4c-0.3,0-0.6-0.1-0.9-0.4l-6.7-7.6c-0.2-0.2-0.3-0.6-0.3-0.9c0-0.3,0.2-0.6,0.5-0.8L-9.9-5.7
				C-9.4-6-8.7-5.9-8.4-5.5l5.5,7.2C-2.7,2-2.6,2.3-2.6,2.6c0,0.3-0.2,0.6-0.5,0.8l-16.2,11.9C-19.5,15.4-19.8,15.4-20,15.4z
				 M-25,6.9l5.2,5.8L-5.4,2.2l-4.1-5.4L-25,6.9z"/>
		</g>
	</g>
	<g id="XMLID_128_">
		<g class="st0">
			<polygon class="st1" points="-89.6,8 -111.4,11.4 -113.7,0.5 -91,-1.9 			"/>
		</g>
		<g>
			<path class="st1" d="M-111.4,12.6c-0.5,0-1-0.4-1.1-0.9l-2.4-11c-0.1-0.3,0-0.6,0.2-0.9c0.2-0.3,0.5-0.4,0.8-0.5l22.7-2.4
				c0.6-0.1,1.2,0.4,1.2,1l1.4,9.9c0.1,0.6-0.3,1.2-0.9,1.3l-21.8,3.5C-111.2,12.6-111.3,12.6-111.4,12.6z M-112.3,1.5l1.9,8.7
				L-90.9,7l-1.1-7.7L-112.3,1.5z"/>
		</g>
	</g>
	<g id="XMLID_416_">
		<path class="st1" d="M-226.3,232.2c-0.3,0-0.6,0-0.9-0.1c-10.5-3.2-17.2-8.5-20-15.6c-4-10.1,1.6-19.9,1.8-20.3
			c0.8-1.5,2.7-2,4.2-1.1c1.5,0.8,2,2.7,1.1,4.2c-0.1,0.1-4.3,7.8-1.4,15c2.1,5.3,7.5,9.3,16,11.9c1.6,0.5,2.5,2.2,2,3.9
			C-223.8,231.3-225,232.2-226.3,232.2z"/>
	</g>
	<g id="XMLID_417_">
		<path class="st1" d="M-228,248.4c-10,0-12.5-5.2-12.7-5.4c-0.3-0.6,0-1.2,0.5-1.5c0.6-0.3,1.2,0,1.5,0.5c0.1,0.1,3.8,7,20.4,2.7
			c0.6-0.2,1.2,0.2,1.4,0.8s-0.2,1.2-0.8,1.4C-221.8,247.9-225.2,248.4-228,248.4z"/>
	</g>
	<g id="XMLID_418_">
		<path class="st1" d="M-184.1,250.5c-10.4,0-18.5-3.4-19-3.6c-0.6-0.2-0.8-0.9-0.6-1.5c0.2-0.6,0.9-0.8,1.5-0.6l0,0
			c0.2,0.1,18.1,7.5,34.4,0c0.6-0.3,1.2,0,1.5,0.6c0.3,0.6,0,1.2-0.6,1.5C-172.7,249.6-178.7,250.5-184.1,250.5z"/>
	</g>
	<g id="XMLID_420_">
		<path class="st1" d="M-5.8,325.7c-0.1,0-0.3,0-0.4,0c-0.8-0.1-7.7-0.9-14.1-7.8c-8.3-8.7-11.9-22.8-10.9-41.8
			c0.1-2.3,2.1-4.1,4.4-4c2.3,0.1,4.1,2.1,4,4.4c-1.1,20.7,4.1,30.7,8.6,35.5c4.3,4.5,8.8,5.1,8.8,5.2c2.3,0.2,4,2.3,3.8,4.6
			C-1.8,324.1-3.7,325.7-5.8,325.7z"/>
	</g>
	<g id="XMLID_421_">
		<path class="st1" d="M-80.7,325.7l-0.8-8.4l-0.1,0c0.8-0.1,19.5-2.8,17.5-40.7c-0.1-2.3,1.7-4.3,4-4.4c2.3-0.1,4.3,1.7,4.4,4
			c1,19-2.7,33-10.9,41.8C-73.1,324.8-79.9,325.6-80.7,325.7z"/>
	</g>
	<g id="XMLID_427_">
		<path class="st1" d="M-59.5,238.6c-21,0-39.6-1.9-55.3-5.8c-13-3.2-24.1-7.7-32.8-13.4c-15.1-9.8-18.2-19.7-18.3-20.1
			c-0.2-0.6,0.2-1.2,0.8-1.4c0.6-0.2,1.2,0.2,1.4,0.8l0,0c0,0.1,3.1,9.6,17.6,19c13.3,8.5,39,18.6,86.6,18.6c0.8,0,1.5,0,2.3,0
			c0,0,0,0,0,0c0.6,0,1.1,0.5,1.1,1.1c0,0.6-0.5,1.1-1.1,1.1C-57.9,238.6-58.7,238.6-59.5,238.6z"/>
	</g>
	<g id="XMLID_426_">
		<path class="st1" d="M-82.3,219.4c-21.4,0-35.7-5.3-43.8-9.7c-8.9-4.9-12.7-9.7-12.9-9.9c-0.4-0.5-0.3-1.2,0.2-1.6
			c0.5-0.4,1.2-0.3,1.6,0.2l0,0c0,0,3.7,4.7,12.3,9.4c7.9,4.3,21.7,9.4,42.6,9.4c0.6,0,1.1,0.5,1.1,1.1S-81.7,219.4-82.3,219.4z"/>
	</g>
	<g id="XMLID_425_">
		<path class="st1" d="M-91,209.8c-20.1,0-31-10.8-31.5-11.3c-0.4-0.4-0.4-1.2,0-1.6c0.4-0.4,1.2-0.4,1.6,0
			c0.1,0.1,10.8,10.6,29.8,10.6c0.6,0,1.1,0.5,1.1,1.1C-89.9,209.3-90.4,209.8-91,209.8z"/>
	</g>
	<g id="XMLID_317_">
		<path class="st1" d="M53.2-0.1C53.2-0.1,53.2-0.1,53.2-0.1c-1.7,0-3.1-1.4-3.1-3.1c0-2.3,0.8-57,30.3-60.9c1.7-0.2,3.2,1,3.5,2.7
			c0.2,1.7-1,3.2-2.7,3.5C69-56.4,62.9-42,59.9-30.1c-3.4,13.5-3.6,26.8-3.6,27C56.3-1.5,54.9-0.1,53.2-0.1z"/>
	</g>
	<g id="XMLID_524_">
		<path class="st1" d="M24.7-34c5.2,6.3,8,13.9,9.3,21.6c2.5-1.1,5.2-2,8.1-2.6c-1.8-9.6-5.5-17.8-10.9-24.4
			C17.9-55.7-5.6-61.9-38.5-57.8c-34.6,4.3-59.3,17.3-73.6,38.5c-8.8,13.2-13.5,29.8-13.5,47.9c0,13.6,2.6,23.4,2.7,23.8
			c0.5,1.9,2.2,3.1,4.1,3.1c0.4,0,0.7,0,1.1-0.1c2.3-0.6,3.6-2.9,3-5.2c-0.1-0.4-9.5-36.2,9.7-64.8c12.9-19.2,35.6-30.9,67.7-34.9
			C-7.6-53.1,13.3-47.9,24.7-34z"/>
	</g>
	<g id="XMLID_303_" class="st0">
		<path class="st1" d="M83,14.3c0,0-9.1,18.6-54.5,21.1c0,0,8.6,16.8,43.8,4.7C72.3,40.2,79.7,39.2,83,14.3z"/>
	</g>
	<g id="XMLID_536_" class="st0">
		<path class="st1" d="M109,92.6c0,0,7.1-17-16.3,23.9c0,0-12.8,7.2,22.2-4.7C115,111.8,128.6,108.6,109,92.6z"/>
	</g>
	<g id="XMLID_537_" class="st0">
		<path class="st1" d="M-138.1,252.7c0,0-16.4-26.4-25.2-6.8c-3.7,8.3-14.4,12.4-14.8,15.2C-178.2,261.1-140.6,275.3-138.1,252.7z"
			/>
	</g>
	<g id="XMLID_538_" class="st0">
		<path class="st1" d="M-190,263.7c0,0-4.4-7.8-24-5.8c-9,0.9-19.6,4.3-20,7.1C-234,265-212,270.9-190,263.7z"/>
	</g>
	<g id="XMLID_539_" class="st0">
		<path class="st1" d="M-239.7,262.4c0,0,11.6-8.5-8-6.5c-9,0.9-15.9,0.2-16.3,3C-264,259-261.7,269.6-239.7,262.4z"/>
	</g>
	<g id="XMLID_522_">
		<path class="st1" d="M-139,128.7c-0.6,0-0.9,0-1,0c-1.7-0.1-3-1.5-2.9-3.2c0.1-1.7,1.5-3,3.2-2.9c0.1,0,5.2,0.2,11.5-1.6
			c8.2-2.4,14.6-7.1,18.8-13.9c0.9-1.5,2.8-1.9,4.2-1c1.5,0.9,1.9,2.8,1,4.2c-5,8.1-12.8,13.9-22.5,16.7
			C-132.3,128.5-137.1,128.7-139,128.7z"/>
	</g>
	<g id="XMLID_523_">
		<path class="st1" d="M-163.5,141.8c-1,0-2.1-0.5-2.6-1.5c-0.9-1.5-0.4-3.3,1-4.2c0.5-0.3,11.5-7.3,8.8-23.8
			c-0.3-1.7,0.9-3.3,2.5-3.5c1.7-0.3,3.3,0.9,3.5,2.5c3.4,20.7-11.1,29.7-11.7,30C-162.4,141.7-163,141.8-163.5,141.8z"/>
	</g>
	<g id="XMLID_533_" class="st0">
		<path class="st1" d="M-244.2,362.1c0,0,42.5-10.7,76.9-28.8c17.9-9.4,27.5-15.3,41.4-33.4c0,0,6.5,13.4-0.3,26.7
			c-3.2,6.3-14.5,11.7-21.4,17.3c-10.1,8.2,10.7,10.8-5.3,22.4C-167.7,377.1-207.5,379.1-244.2,362.1z"/>
	</g>
	<g id="XMLID_535_" class="st0">
		<path class="st1" d="M9.4,255.6c0,0,49.1-22.2,80-45.6c16.3-12.3,14.7-19.3,28.6-37.4c0,0,1,5.1-5.7,18.4
			c-3.2,6.3-11.6,26.5-27.6,38.1C69.9,239.9,53.2,258.6,9.4,255.6z"/>
	</g>
	<g id="XMLID_423_">
		<path class="st1" d="M-22.9,238.6c-0.8,0-1.6,0-2.3,0c-0.6,0-1.1-0.5-1.1-1.1c0-0.6,0.5-1.1,1.1-1.1c0,0,0,0,0,0
			c49.3,0.3,75.7-10,89.2-18.8c14.4-9.3,17.3-18.7,17.3-18.8c0.2-0.6,0.8-0.9,1.4-0.8c0.6,0.2,0.9,0.8,0.8,1.4
			c-0.1,0.4-3.2,10.3-18.3,20.1c-8.8,5.7-19.8,10.2-32.8,13.4C16.7,236.6-1.8,238.6-22.9,238.6z"/>
	</g>
	<g id="XMLID_424_">
		<path class="st1" d="M0,219.4c-0.6,0-1.1-0.5-1.1-1.1s0.5-1.1,1.1-1.1c20.9,0,34.7-5.1,42.6-9.4c8.6-4.6,12.3-9.3,12.3-9.4
			c0.4-0.5,1.1-0.6,1.6-0.2c0.5,0.4,0.6,1.1,0.2,1.6c-0.2,0.2-3.9,5-12.9,9.9C35.7,214.1,21.4,219.4,0,219.4z"/>
	</g>
	<g id="XMLID_422_">
		<path class="st1" d="M8.7,209.8c-0.6,0-1.1-0.5-1.1-1.1c0-0.6,0.5-1.1,1.1-1.1c19.1,0,29.7-10.5,29.8-10.6c0.4-0.4,1.2-0.4,1.6,0
			c0.4,0.4,0.5,1.2,0,1.6C39.7,198.9,28.7,209.8,8.7,209.8z"/>
	</g>
	<g id="XMLID_344_" class="st0">
		<path class="st1" d="M-127.3,79.6c0,0,21.5,15.4,18.5,35.3l-5.5,2.2L-127.3,79.6z"/>
	</g>
	<g id="XMLID_534_" class="st0">
		<path class="st1" d="M-163.4,110.2c0,0,24.9-15.3,13.2,15.1l-6.4,6L-163.4,110.2z"/>
	</g>
	<g id="XMLID_525_" class="st0">
		<path class="st1" d="M-60.8,44.3c0,0,25.5-13.6,35.6-1l-9,10.2L-60.8,44.3z"/>
	</g>
	<g id="XMLID_527_" class="st0">
		<path class="st1" d="M-110.2,322.1c0,0,35.8,20.9,66.6,50.2c7.4,7,10.8,19.9,18.4,23.2c13.9,6,33.8,1.2,46.1-0.8
			c69.5-11.2,34.9-61.7,34.9-61.7l-33.1-7.5C22.7,325.5-18.7,354.2-110.2,322.1z"/>
	</g>
	<g id="XMLID_532_" class="st0">
		<path class="st1" d="M-103.9,250.7c0,0,96.7,52.5,104.8,25.7C12,239.8,6.8,259,6.8,259S-40.9,276.4-103.9,250.7z"/>
	</g>
</g>
</svg>
