<?xml version="1.0" encoding="utf-8"?>
<!-- Generator: Adobe Illustrator 21.0.2, SVG Export Plug-In . SVG Version: 6.00 Build 0)  -->
<svg version="1.1" id="Layer_1" xmlns="http://www.w3.org/2000/svg" xmlns:xlink="http://www.w3.org/1999/xlink" x="0px" y="0px"
	 viewBox="0 0 120 120" style="enable-background:new 0 0 120 120;" xml:space="preserve">
<style type="text/css">
	.st0{fill:url(#XMLID_2_);}
</style>
<g id="XMLID_27_">
	
		<linearGradient id="XMLID_2_" gradientUnits="userSpaceOnUse" x1="60" y1="116.9319" x2="60" y2="6.0193" gradientTransform="matrix(1 0 0 -1 0 122)">
		<stop  offset="0" style="stop-color:#D7CAA8"/>
		<stop  offset="0.2267" style="stop-color:#D3C6A5"/>
		<stop  offset="0.4691" style="stop-color:#C6BA9B"/>
		<stop  offset="0.7188" style="stop-color:#B0A68A"/>
		<stop  offset="0.9721" style="stop-color:#938A73"/>
		<stop  offset="1" style="stop-color:#8F8770"/>
	</linearGradient>
	<path id="XMLID_34_" class="st0" d="M73,97.9c-6.8,4.7-15.2,7.1-25.1,7.1C28.1,105.1,15,94.2,15,77.9c0-10.5,6-18.1,14.6-22.7
		c-3.5-5-5.2-9.7-5.2-15C24.4,26.2,35.8,15,53.4,15C70.5,15,81,25.6,82.3,42.1H63c-0.4-6-4-9.6-8.9-9.6c-4.7,0-8.3,3.2-8.3,8.1
		c0,5.2,4.1,9.1,12.4,17l14.2,13.9l9.1-14.9h21.1l-16.4,27l-0.4,0.7l19.2,18.9H78.4L73,97.9z M59.3,85.1L45.7,72.2l-4.9-4.6
		c-3.7,2.2-6,5.5-6,9.4c0,5.9,5.9,10.6,13.7,10.6C51.9,87.9,55.6,87,59.3,85.1z"/>
</g>
</svg>
